<?xml version="1.0" encoding="utf-8" ?>
<svg baseProfile="full" height="900" version="1.1" width="900" xmlns="http://www.w3.org/2000/svg" xmlns:ev="http://www.w3.org/2001/xml-events" xmlns:xlink="http://www.w3.org/1999/xlink"><defs /><g stroke="red" stroke-width="2" transform="rotate(0.000000,450.000000,200.000000)"><path d="M 450.000000,200.000000 m 21.213203,-21.213203 a 30.000000,30.000000 0 1,0 0.000000,42.426407 a 26.568542,26.568542 0 0,1 37.573593,0.000000 a 30.000000,30.000000 0 1,0 0.000000,-42.426407 a 26.568542,26.568542 0 0,1 -37.573593,0.000000 Z" fill="none" /><circle cx="450" cy="200" fill="none" r="12" /><circle cx="530" cy="200" fill="none" r="12" /></g><g stroke="blue" stroke-width="2" transform="rotate(90.000000,530.000000,200.000000)"><path d="M 530.000000,200.000000 m 21.213203,21.213203 a 26.568542,26.568542 0 0,1 37.573593,0.000000 m 0.000000,-42.426407 a 26.568542,26.568542 0 0,1 -37.573593,0.000000" fill="none" /></g><g stroke="red" stroke-width="2" transform="rotate(45.000000,530.000000,280.000000)"><path d="M 530.000000,280.000000 m 21.213203,-21.213203 a 30.000000,30.000000 0 1,0 0.000000,42.426407 a 26.568542,26.568542 0 0,1 37.573593,0.000000 a 30.000000,30.000000 0 1,0 0.000000,-42.426407 a 26.568542,26.568542 0 0,1 -37.573593,0.000000 Z" fill="none" /><circle cx="530.0" cy="280.0" fill="none" r="12" /><circle cx="610.0" cy="280.0" fill="none" r="12" /></g><g stroke="blue" stroke-width="2" transform="rotate(135.000000,586.568542,336.568542)"><path d="M 586.568542,336.568542 m 21.213203,21.213203 a 26.568542,26.568542 0 0,1 37.573593,0.000000 m 0.000000,-42.426407 a 26.568542,26.568542 0 0,1 -37.573593,0.000000" fill="none" /></g><g stroke="red" stroke-width="2" transform="rotate(90.000000,530.000000,393.137085)"><path d="M 530.000000,393.137085 m 21.213203,-21.213203 a 30.000000,30.000000 0 1,0 0.000000,42.426407 a 26.568542,26.568542 0 0,1 37.573593,0.000000 a 30.000000,30.000000 0 1,0 0.000000,-42.426407 a 26.568542,26.568542 0 0,1 -37.573593,0.000000 Z" fill="none" /><circle cx="530.0" cy="393.1370849898476" fill="none" r="12" /><circle cx="610.0" cy="393.1370849898476" fill="none" r="12" /></g><g stroke="blue" stroke-width="2" transform="rotate(180.000000,530.000000,473.137085)"><path d="M 530.000000,473.137085 m 21.213203,21.213203 a 26.568542,26.568542 0 0,1 37.573593,0.000000 m 0.000000,-42.426407 a 26.568542,26.568542 0 0,1 -37.573593,0.000000" fill="none" /></g><g stroke="red" stroke-width="2" transform="rotate(135.000000,450.000000,473.137085)"><path d="M 450.000000,473.137085 m 21.213203,-21.213203 a 30.000000,30.000000 0 1,0 0.000000,42.426407 a 26.568542,26.568542 0 0,1 37.573593,0.000000 a 30.000000,30.000000 0 1,0 0.000000,-42.426407 a 26.568542,26.568542 0 0,1 -37.573593,0.000000 Z" fill="none" /><circle cx="450.0" cy="473.1370849898476" fill="none" r="12" /><circle cx="530.0" cy="473.1370849898476" fill="none" r="12" /></g><g stroke="blue" stroke-width="2" transform="rotate(225.000000,393.431458,529.705627)"><path d="M 393.431458,529.705627 m 21.213203,21.213203 a 26.568542,26.568542 0 0,1 37.573593,0.000000 m 0.000000,-42.426407 a 26.568542,26.568542 0 0,1 -37.573593,0.000000" fill="none" /></g><g stroke="red" stroke-width="2" transform="rotate(180.000000,336.862915,473.137085)"><path d="M 336.862915,473.137085 m 21.213203,-21.213203 a 30.000000,30.000000 0 1,0 0.000000,42.426407 a 26.568542,26.568542 0 0,1 37.573593,0.000000 a 30.000000,30.000000 0 1,0 0.000000,-42.426407 a 26.568542,26.568542 0 0,1 -37.573593,0.000000 Z" fill="none" /><circle cx="336.8629150101524" cy="473.1370849898476" fill="none" r="12" /><circle cx="416.8629150101524" cy="473.1370849898476" fill="none" r="12" /></g><g stroke="blue" stroke-width="2" transform="rotate(270.000000,256.862915,473.137085)"><path d="M 256.862915,473.137085 m 21.213203,21.213203 a 26.568542,26.568542 0 0,1 37.573593,0.000000 m 0.000000,-42.426407 a 26.568542,26.568542 0 0,1 -37.573593,0.000000" fill="none" /></g><g stroke="red" stroke-width="2" transform="rotate(225.000000,256.862915,393.137085)"><path d="M 256.862915,393.137085 m 21.213203,-21.213203 a 30.000000,30.000000 0 1,0 0.000000,42.426407 a 26.568542,26.568542 0 0,1 37.573593,0.000000 a 30.000000,30.000000 0 1,0 0.000000,-42.426407 a 26.568542,26.568542 0 0,1 -37.573593,0.000000 Z" fill="none" /><circle cx="256.8629150101524" cy="393.1370849898476" fill="none" r="12" /><circle cx="336.8629150101524" cy="393.1370849898476" fill="none" r="12" /></g><g stroke="blue" stroke-width="2" transform="rotate(315.000000,200.294373,336.568542)"><path d="M 200.294373,336.568542 m 21.213203,21.213203 a 26.568542,26.568542 0 0,1 37.573593,0.000000 m 0.000000,-42.426407 a 26.568542,26.568542 0 0,1 -37.573593,0.000000" fill="none" /></g><g stroke="red" stroke-width="2" transform="rotate(270.000000,256.862915,280.000000)"><path d="M 256.862915,280.000000 m 21.213203,-21.213203 a 30.000000,30.000000 0 1,0 0.000000,42.426407 a 26.568542,26.568542 0 0,1 37.573593,0.000000 a 30.000000,30.000000 0 1,0 0.000000,-42.426407 a 26.568542,26.568542 0 0,1 -37.573593,0.000000 Z" fill="none" /><circle cx="256.8629150101524" cy="280.0" fill="none" r="12" /><circle cx="336.8629150101524" cy="280.0" fill="none" r="12" /></g><g stroke="blue" stroke-width="2" transform="rotate(360.000000,256.862915,200.000000)"><path d="M 256.862915,200.000000 m 21.213203,21.213203 a 26.568542,26.568542 0 0,1 37.573593,0.000000 m 0.000000,-42.426407 a 26.568542,26.568542 0 0,1 -37.573593,0.000000" fill="none" /></g><g stroke="red" stroke-width="2" transform="rotate(315.000000,336.862915,200.000000)"><path d="M 336.862915,200.000000 m 21.213203,-21.213203 a 30.000000,30.000000 0 1,0 0.000000,42.426407 a 26.568542,26.568542 0 0,1 37.573593,0.000000 a 30.000000,30.000000 0 1,0 0.000000,-42.426407 a 26.568542,26.568542 0 0,1 -37.573593,0.000000 Z" fill="none" /><circle cx="336.8629150101524" cy="199.99999999999997" fill="none" r="12" /><circle cx="416.8629150101524" cy="199.99999999999997" fill="none" r="12" /></g><g stroke="blue" stroke-width="2" transform="rotate(405.000000,393.431458,143.431458)"><path d="M 393.431458,143.431458 m 21.213203,21.213203 a 26.568542,26.568542 0 0,1 37.573593,0.000000 m 0.000000,-42.426407 a 26.568542,26.568542 0 0,1 -37.573593,0.000000" fill="none" /></g></svg>