<?xml version="1.0" encoding="utf-8" ?>
<svg baseProfile="full" height="900" version="1.1" width="900" xmlns="http://www.w3.org/2000/svg" xmlns:ev="http://www.w3.org/2001/xml-events" xmlns:xlink="http://www.w3.org/1999/xlink"><defs /><g stroke="red" stroke-width="2" transform="rotate(0.000000,450.000000,200.000000)"><path d="M 450.000000,200.000000 m 21.213203,-21.213203 a 30.000000,30.000000 0 1,0 0.000000,42.426407 a 26.568542,26.568542 0 0,1 37.573593,0.000000 a 30.000000,30.000000 0 1,0 0.000000,-42.426407 a 26.568542,26.568542 0 0,1 -37.573593,0.000000 Z" fill="none" /><circle cx="450" cy="200" fill="none" r="12" /><circle cx="530" cy="200" fill="none" r="12" /></g><g stroke="blue" stroke-width="2" transform="rotate(108.000000,530.000000,200.000000)"><path d="M 530.000000,200.000000 m 21.213203,21.213203 a 26.568542,26.568542 0 0,1 37.573593,0.000000 m 0.000000,-42.426407 a 26.568542,26.568542 0 0,1 -37.573593,0.000000" fill="none" /></g><g stroke="red" stroke-width="2" transform="rotate(72.000000,505.278640,276.084521)"><path d="M 505.278640,276.084521 m 21.213203,-21.213203 a 30.000000,30.000000 0 1,0 0.000000,42.426407 a 26.568542,26.568542 0 0,1 37.573593,0.000000 a 30.000000,30.000000 0 1,0 0.000000,-42.426407 a 26.568542,26.568542 0 0,1 -37.573593,0.000000 Z" fill="none" /><circle cx="505.2786404500042" cy="276.0845213036123" fill="none" r="12" /><circle cx="585.2786404500042" cy="276.0845213036123" fill="none" r="12" /></g><g stroke="blue" stroke-width="2" transform="rotate(180.000000,530.000000,352.169043)"><path d="M 530.000000,352.169043 m 21.213203,21.213203 a 26.568542,26.568542 0 0,1 37.573593,0.000000 m 0.000000,-42.426407 a 26.568542,26.568542 0 0,1 -37.573593,0.000000" fill="none" /></g><g stroke="red" stroke-width="2" transform="rotate(144.000000,450.000000,352.169043)"><path d="M 450.000000,352.169043 m 21.213203,-21.213203 a 30.000000,30.000000 0 1,0 0.000000,42.426407 a 26.568542,26.568542 0 0,1 37.573593,0.000000 a 30.000000,30.000000 0 1,0 0.000000,-42.426407 a 26.568542,26.568542 0 0,1 -37.573593,0.000000 Z" fill="none" /><circle cx="450.0" cy="352.1690426072246" fill="none" r="12" /><circle cx="530.0" cy="352.1690426072246" fill="none" r="12" /></g><g stroke="blue" stroke-width="2" transform="rotate(252.000000,385.278640,399.191863)"><path d="M 385.278640,399.191863 m 21.213203,21.213203 a 26.568542,26.568542 0 0,1 37.573593,0.000000 m 0.000000,-42.426407 a 26.568542,26.568542 0 0,1 -37.573593,0.000000" fill="none" /></g><g stroke="red" stroke-width="2" transform="rotate(216.000000,360.557281,323.107341)"><path d="M 360.557281,323.107341 m 21.213203,-21.213203 a 30.000000,30.000000 0 1,0 0.000000,42.426407 a 26.568542,26.568542 0 0,1 37.573593,0.000000 a 30.000000,30.000000 0 1,0 0.000000,-42.426407 a 26.568542,26.568542 0 0,1 -37.573593,0.000000 Z" fill="none" /><circle cx="360.55728090000844" cy="323.10734148701016" fill="none" r="12" /><circle cx="440.55728090000844" cy="323.10734148701016" fill="none" r="12" /></g><g stroke="blue" stroke-width="2" transform="rotate(324.000000,295.835921,276.084521)"><path d="M 295.835921,276.084521 m 21.213203,21.213203 a 26.568542,26.568542 0 0,1 37.573593,0.000000 m 0.000000,-42.426407 a 26.568542,26.568542 0 0,1 -37.573593,0.000000" fill="none" /></g><g stroke="red" stroke-width="2" transform="rotate(288.000000,360.557281,229.061701)"><path d="M 360.557281,229.061701 m 21.213203,-21.213203 a 30.000000,30.000000 0 1,0 0.000000,42.426407 a 26.568542,26.568542 0 0,1 37.573593,0.000000 a 30.000000,30.000000 0 1,0 0.000000,-42.426407 a 26.568542,26.568542 0 0,1 -37.573593,0.000000 Z" fill="none" /><circle cx="360.55728090000844" cy="229.06170112021442" fill="none" r="12" /><circle cx="440.55728090000844" cy="229.06170112021442" fill="none" r="12" /></g><g stroke="blue" stroke-width="2" transform="rotate(396.000000,385.278640,152.977180)"><path d="M 385.278640,152.977180 m 21.213203,21.213203 a 26.568542,26.568542 0 0,1 37.573593,0.000000 m 0.000000,-42.426407 a 26.568542,26.568542 0 0,1 -37.573593,0.000000" fill="none" /></g></svg>