<?xml version="1.0" encoding="utf-8" ?>
<svg baseProfile="full" height="900" version="1.1" width="900" xmlns="http://www.w3.org/2000/svg" xmlns:ev="http://www.w3.org/2001/xml-events" xmlns:xlink="http://www.w3.org/1999/xlink"><defs /><g stroke="red" stroke-width="2" transform="rotate(0.000000,450.000000,200.000000)"><path d="M 450.000000,200.000000 m 21.213203,-21.213203 a 30.000000,30.000000 0 1,0 0.000000,42.426407 a 26.568542,26.568542 0 0,1 37.573593,0.000000 a 30.000000,30.000000 0 1,0 0.000000,-42.426407 a 26.568542,26.568542 0 0,1 -37.573593,0.000000 Z" fill="none" /><circle cx="450" cy="200" fill="none" r="12" /><circle cx="530" cy="200" fill="none" r="12" /></g><g stroke="blue" stroke-width="2" transform="rotate(130.951374,530.000000,200.000000)"><path d="M 530.000000,200.000000 m 21.213203,21.213203 a 26.568542,26.568542 0 0,1 37.573593,0.000000 m 0.000000,-42.426407 a 26.568542,26.568542 0 0,1 -37.573593,0.000000" fill="none" /></g><g stroke="red" stroke-width="2" transform="rotate(72.000000,477.566537,260.421287)"><path d="M 477.566537,260.421287 m 21.213203,-21.213203 a 30.000000,30.000000 0 1,0 0.000000,42.426407 a 26.568542,26.568542 0 0,1 37.573593,0.000000 a 30.000000,30.000000 0 1,0 0.000000,-42.426407 a 26.568542,26.568542 0 0,1 -37.573593,0.000000 Z" fill="none" /><circle cx="477.56653701602625" cy="260.4212873042958" fill="none" r="12" /><circle cx="557.5665370160262" cy="260.4212873042958" fill="none" r="12" /></g><g stroke="blue" stroke-width="2" transform="rotate(202.951374,502.287897,336.505809)"><path d="M 502.287897,336.505809 m 21.213203,21.213203 a 26.568542,26.568542 0 0,1 37.573593,0.000000 m 0.000000,-42.426407 a 26.568542,26.568542 0 0,1 -37.573593,0.000000" fill="none" /></g><g stroke="red" stroke-width="2" transform="rotate(144.000000,428.621006,305.309827)"><path d="M 428.621006,305.309827 m 21.213203,-21.213203 a 30.000000,30.000000 0 1,0 0.000000,42.426407 a 26.568542,26.568542 0 0,1 37.573593,0.000000 a 30.000000,30.000000 0 1,0 0.000000,-42.426407 a 26.568542,26.568542 0 0,1 -37.573593,0.000000 Z" fill="none" /><circle cx="428.62100641635226" cy="305.30982656411777" fill="none" r="12" /><circle cx="508.62100641635226" cy="305.30982656411777" fill="none" r="12" /></g><g stroke="blue" stroke-width="2" transform="rotate(274.951374,363.899647,352.332647)"><path d="M 363.899647,352.332647 m 21.213203,21.213203 a 26.568542,26.568542 0 0,1 37.573593,0.000000 m 0.000000,-42.426407 a 26.568542,26.568542 0 0,1 -37.573593,0.000000" fill="none" /></g><g stroke="red" stroke-width="2" transform="rotate(216.000000,370.804468,272.631182)"><path d="M 370.804468,272.631182 m 21.213203,-21.213203 a 30.000000,30.000000 0 1,0 0.000000,42.426407 a 26.568542,26.568542 0 0,1 37.573593,0.000000 a 30.000000,30.000000 0 1,0 0.000000,-42.426407 a 26.568542,26.568542 0 0,1 -37.573593,0.000000 Z" fill="none" /><circle cx="370.8044678923295" cy="272.6311822277261" fill="none" r="12" /><circle cx="450.8044678923295" cy="272.6311822277261" fill="none" r="12" /></g><g stroke="blue" stroke-width="2" transform="rotate(346.951374,306.083108,225.608362)"><path d="M 306.083108,225.608362 m 21.213203,21.213203 a 26.568542,26.568542 0 0,1 37.573593,0.000000 m 0.000000,-42.426407 a 26.568542,26.568542 0 0,1 -37.573593,0.000000" fill="none" /></g><g stroke="red" stroke-width="2" transform="rotate(288.000000,384.017413,207.546130)"><path d="M 384.017413,207.546130 m 21.213203,-21.213203 a 30.000000,30.000000 0 1,0 0.000000,42.426407 a 26.568542,26.568542 0 0,1 37.573593,0.000000 a 30.000000,30.000000 0 1,0 0.000000,-42.426407 a 26.568542,26.568542 0 0,1 -37.573593,0.000000 Z" fill="none" /><circle cx="384.01741257228974" cy="207.54613006174475" fill="none" r="12" /><circle cx="464.01741257228974" cy="207.54613006174475" fill="none" r="12" /></g><g stroke="blue" stroke-width="2" transform="rotate(418.951374,408.738772,131.461609)"><path d="M 408.738772,131.461609 m 21.213203,21.213203 a 26.568542,26.568542 0 0,1 37.573593,0.000000 m 0.000000,-42.426407 a 26.568542,26.568542 0 0,1 -37.573593,0.000000" fill="none" /></g></svg>