<?xml version="1.0" encoding="utf-8" ?>
<svg baseProfile="full" height="900" version="1.1" width="900" xmlns="http://www.w3.org/2000/svg" xmlns:ev="http://www.w3.org/2001/xml-events" xmlns:xlink="http://www.w3.org/1999/xlink"><defs /><g stroke="red" stroke-width="2" transform="rotate(0,450,200)"><path d="M 450,200 m 21,-21 a 30,30 0 1,0 0,42 a 26,26 0 0,1 37,0 a 30,30 0 1,0 0,-42 a 26,26 0 0,1 -37,0 Z" fill="none" /><circle cx="450" cy="200" fill="none" r="12" /><circle cx="530" cy="200" fill="none" r="12" /></g><g stroke="blue" stroke-width="2" transform="rotate(108,530,200)"><path d="M 530,200 m 21,21 a 26,26 0 0,1 37,0 m 0,-42 a 26,26 0 0,1 -37,0" fill="none" /></g><g stroke="red" stroke-width="2" transform="rotate(72,505,276)"><path d="M 505,276 m 21,-21 a 30,30 0 1,0 0,42 a 26,26 0 0,1 37,0 a 30,30 0 1,0 0,-42 a 26,26 0 0,1 -37,0 Z" fill="none" /><circle cx="505.2786404500042" cy="276.0845213036123" fill="none" r="12" /><circle cx="585.2786404500042" cy="276.0845213036123" fill="none" r="12" /></g><g stroke="blue" stroke-width="2" transform="rotate(180,530,352)"><path d="M 530,352 m 21,21 a 26,26 0 0,1 37,0 m 0,-42 a 26,26 0 0,1 -37,0" fill="none" /></g><g stroke="red" stroke-width="2" transform="rotate(144,450,352)"><path d="M 450,352 m 21,-21 a 30,30 0 1,0 0,42 a 26,26 0 0,1 37,0 a 30,30 0 1,0 0,-42 a 26,26 0 0,1 -37,0 Z" fill="none" /><circle cx="450.0" cy="352.1690426072246" fill="none" r="12" /><circle cx="530.0" cy="352.1690426072246" fill="none" r="12" /></g><g stroke="blue" stroke-width="2" transform="rotate(252,385,399)"><path d="M 385,399 m 21,21 a 26,26 0 0,1 37,0 m 0,-42 a 26,26 0 0,1 -37,0" fill="none" /></g><g stroke="red" stroke-width="2" transform="rotate(216,360,323)"><path d="M 360,323 m 21,-21 a 30,30 0 1,0 0,42 a 26,26 0 0,1 37,0 a 30,30 0 1,0 0,-42 a 26,26 0 0,1 -37,0 Z" fill="none" /><circle cx="360.55728090000844" cy="323.10734148701016" fill="none" r="12" /><circle cx="440.55728090000844" cy="323.10734148701016" fill="none" r="12" /></g><g stroke="blue" stroke-width="2" transform="rotate(324,295,276)"><path d="M 295,276 m 21,21 a 26,26 0 0,1 37,0 m 0,-42 a 26,26 0 0,1 -37,0" fill="none" /></g><g stroke="red" stroke-width="2" transform="rotate(288,360,229)"><path d="M 360,229 m 21,-21 a 30,30 0 1,0 0,42 a 26,26 0 0,1 37,0 a 30,30 0 1,0 0,-42 a 26,26 0 0,1 -37,0 Z" fill="none" /><circle cx="360.55728090000844" cy="229.06170112021442" fill="none" r="12" /><circle cx="440.55728090000844" cy="229.06170112021442" fill="none" r="12" /></g><g stroke="blue" stroke-width="2" transform="rotate(396,385,152)"><path d="M 385,152 m 21,21 a 26,26 0 0,1 37,0 m 0,-42 a 26,26 0 0,1 -37,0" fill="none" /></g></svg>