<?xml version="1.0" encoding="utf-8" ?>
<svg baseProfile="full" height="900" version="1.1" width="900" xmlns="http://www.w3.org/2000/svg" xmlns:ev="http://www.w3.org/2001/xml-events" xmlns:xlink="http://www.w3.org/1999/xlink"><defs /><g stroke="red" stroke-width="2"><path d="M 471.213203,203.786797 a 30.000000,30.000000 0 1,0 -0.000000,42.426407 a 26.568542,26.568542 0 0,1 37.573593,0.000000 a 30.000000,30.000000 0 1,0 0.000000,-42.426407 a 26.568542,26.568542 0 0,1 -37.573593,-0.000000 Z" fill="none" /><circle cx="450.0" cy="225.0" fill="none" r="12" /><circle cx="530.0" cy="225.0" fill="none" r="12" /></g><g stroke="blue" stroke-width="2"><path d="M 558.977775,232.764571 m -36.742346,21.213203 a 26.568542,26.568542 0 0,1 18.786797,32.539686 m 36.742346,-21.213203 a 26.568542,26.568542 0 0,1 -18.786797,-32.539686" fill="none" /></g><g stroke="red" stroke-width="2"><path d="M 577.764571,323.259807 a 30.000000,30.000000 0 1,0 -36.742346,-21.213203 a 26.568542,26.568542 0 0,1 -18.786797,32.539686 a 30.000000,30.000000 0 1,0 36.742346,21.213203 a 26.568542,26.568542 0 0,1 18.786797,-32.539686 Z" fill="none" /><circle cx="570.0" cy="294.28203230275506" fill="none" r="12" /><circle cx="530.0" cy="363.56406460551017" fill="none" r="12" /></g><g stroke="blue" stroke-width="2"><path d="M 508.786797,384.777268 m -0.000000,-42.426407 a 26.568542,26.568542 0 0,1 -37.573593,0.000000 m 0.000000,42.426407 a 26.568542,26.568542 0 0,1 37.573593,-0.000000" fill="none" /></g><g stroke="red" stroke-width="2"><path d="M 421.022225,355.799493 a 30.000000,30.000000 0 1,0 36.742346,-21.213203 a 26.568542,26.568542 0 0,1 -18.786797,-32.539686 a 30.000000,30.000000 0 1,0 -36.742346,21.213203 a 26.568542,26.568542 0 0,1 18.786797,32.539686 Z" fill="none" /><circle cx="450.0" cy="363.56406460551017" fill="none" r="12" /><circle cx="409.99999999999994" cy="294.2820323027551" fill="none" r="12" /></g><g stroke="blue" stroke-width="2"><path d="M 402.235429,265.304258 m 36.742346,21.213203 a 26.568542,26.568542 0 0,1 18.786797,-32.539686 m -36.742346,-21.213203 a 26.568542,26.568542 0 0,1 -18.786797,32.539686" fill="none" /></g></svg>