<?xml version="1.0" encoding="utf-8" ?>
<svg baseProfile="full" height="900" version="1.1" width="900" xmlns="http://www.w3.org/2000/svg" xmlns:ev="http://www.w3.org/2001/xml-events" xmlns:xlink="http://www.w3.org/1999/xlink"><defs /><g stroke="red" stroke-width="2"><path d="M 246.213203,203.786797 a 30.000000,30.000000 0 1,0 -0.000000,42.426407 a 26.568542,26.568542 0 0,1 37.573593,0.000000 a 30.000000,30.000000 0 1,0 0.000000,-42.426407 a 26.568542,26.568542 0 0,1 -37.573593,-0.000000 Z" fill="none" /><circle cx="225.0" cy="225.0" fill="none" r="12" /><circle cx="305.0" cy="225.0" fill="none" r="12" /></g><g stroke="blue" stroke-width="2"><path d="M 326.213203,203.786797 m -0.000000,42.426407 a 26.568542,26.568542 0 0,1 37.573593,0.000000 m 0.000000,-42.426407 a 26.568542,26.568542 0 0,1 -37.573593,-0.000000" fill="none" /></g><g stroke="red" stroke-width="2"><path d="M 406.213203,203.786797 a 30.000000,30.000000 0 1,0 -0.000000,42.426407 a 26.568542,26.568542 0 0,1 37.573593,0.000000 a 30.000000,30.000000 0 1,0 0.000000,-42.426407 a 26.568542,26.568542 0 0,1 -37.573593,-0.000000 Z" fill="none" /><circle cx="385.0" cy="225.0" fill="none" r="12" /><circle cx="465.0" cy="225.0" fill="none" r="12" /></g><g stroke="blue" stroke-width="2"><path d="M 493.977775,232.764571 m -36.742346,21.213203 a 26.568542,26.568542 0 0,1 18.786797,32.539686 m 36.742346,-21.213203 a 26.568542,26.568542 0 0,1 -18.786797,-32.539686" fill="none" /></g><g stroke="red" stroke-width="2"><path d="M 533.977775,302.046604 a 30.000000,30.000000 0 1,0 -36.742346,21.213203 a 26.568542,26.568542 0 0,1 18.786797,32.539686 a 30.000000,30.000000 0 1,0 36.742346,-21.213203 a 26.568542,26.568542 0 0,1 -18.786797,-32.539686 Z" fill="none" /><circle cx="505.0" cy="294.28203230275506" fill="none" r="12" /><circle cx="545.0" cy="363.5640646055101" fill="none" r="12" /></g><g stroke="blue" stroke-width="2"><path d="M 573.977775,371.328636 m -36.742346,21.213203 a 26.568542,26.568542 0 0,1 18.786797,32.539686 m 36.742346,-21.213203 a 26.568542,26.568542 0 0,1 -18.786797,-32.539686" fill="none" /></g><g stroke="red" stroke-width="2"><path d="M 592.764571,461.823872 a 30.000000,30.000000 0 1,0 -36.742346,-21.213203 a 26.568542,26.568542 0 0,1 -18.786797,32.539686 a 30.000000,30.000000 0 1,0 36.742346,21.213203 a 26.568542,26.568542 0 0,1 18.786797,-32.539686 Z" fill="none" /><circle cx="585.0" cy="432.84609690826517" fill="none" r="12" /><circle cx="545.0" cy="502.1281292110203" fill="none" r="12" /></g><g stroke="blue" stroke-width="2"><path d="M 552.764571,531.105904 m -36.742346,-21.213203 a 26.568542,26.568542 0 0,1 -18.786797,32.539686 m 36.742346,21.213203 a 26.568542,26.568542 0 0,1 18.786797,-32.539686" fill="none" /></g><g stroke="red" stroke-width="2"><path d="M 512.764571,600.387936 a 30.000000,30.000000 0 1,0 -36.742346,-21.213203 a 26.568542,26.568542 0 0,1 -18.786797,32.539686 a 30.000000,30.000000 0 1,0 36.742346,21.213203 a 26.568542,26.568542 0 0,1 18.786797,-32.539686 Z" fill="none" /><circle cx="505.0" cy="571.4101615137754" fill="none" r="12" /><circle cx="465.0" cy="640.6921938165306" fill="none" r="12" /></g><g stroke="blue" stroke-width="2"><path d="M 443.786797,661.905397 m -0.000000,-42.426407 a 26.568542,26.568542 0 0,1 -37.573593,0.000000 m 0.000000,42.426407 a 26.568542,26.568542 0 0,1 37.573593,-0.000000" fill="none" /></g><g stroke="red" stroke-width="2"><path d="M 363.786797,661.905397 a 30.000000,30.000000 0 1,0 -0.000000,-42.426407 a 26.568542,26.568542 0 0,1 -37.573593,0.000000 a 30.000000,30.000000 0 1,0 0.000000,42.426407 a 26.568542,26.568542 0 0,1 37.573593,-0.000000 Z" fill="none" /><circle cx="385.0" cy="640.6921938165306" fill="none" r="12" /><circle cx="305.0" cy="640.6921938165306" fill="none" r="12" /></g><g stroke="blue" stroke-width="2"><path d="M 283.786797,661.905397 m -0.000000,-42.426407 a 26.568542,26.568542 0 0,1 -37.573593,0.000000 m 0.000000,42.426407 a 26.568542,26.568542 0 0,1 37.573593,-0.000000" fill="none" /></g><g stroke="red" stroke-width="2"><path d="M 196.022225,632.927622 a 30.000000,30.000000 0 1,0 36.742346,-21.213203 a 26.568542,26.568542 0 0,1 -18.786797,-32.539686 a 30.000000,30.000000 0 1,0 -36.742346,21.213203 a 26.568542,26.568542 0 0,1 18.786797,32.539686 Z" fill="none" /><circle cx="225.0" cy="640.6921938165306" fill="none" r="12" /><circle cx="184.99999999999997" cy="571.4101615137755" fill="none" r="12" /></g><g stroke="blue" stroke-width="2"><path d="M 156.022225,563.645590 m 36.742346,-21.213203 a 26.568542,26.568542 0 0,1 -18.786797,-32.539686 m -36.742346,21.213203 a 26.568542,26.568542 0 0,1 18.786797,32.539686" fill="none" /></g><g stroke="red" stroke-width="2"><path d="M 116.022225,494.363558 a 30.000000,30.000000 0 1,0 36.742346,-21.213203 a 26.568542,26.568542 0 0,1 -18.786797,-32.539686 a 30.000000,30.000000 0 1,0 -36.742346,21.213203 a 26.568542,26.568542 0 0,1 18.786797,32.539686 Z" fill="none" /><circle cx="144.99999999999994" cy="502.12812921102045" fill="none" r="12" /><circle cx="104.99999999999991" cy="432.8460969082654" fill="none" r="12" /></g><g stroke="blue" stroke-width="2"><path d="M 97.235429,403.868322 m 36.742346,21.213203 a 26.568542,26.568542 0 0,1 18.786797,-32.539686 m -36.742346,-21.213203 a 26.568542,26.568542 0 0,1 -18.786797,32.539686" fill="none" /></g><g stroke="red" stroke-width="2"><path d="M 137.235429,334.586290 a 30.000000,30.000000 0 1,0 36.742346,21.213203 a 26.568542,26.568542 0 0,1 18.786797,-32.539686 a 30.000000,30.000000 0 1,0 -36.742346,-21.213203 a 26.568542,26.568542 0 0,1 -18.786797,32.539686 Z" fill="none" /><circle cx="144.99999999999991" cy="363.56406460551034" fill="none" r="12" /><circle cx="184.99999999999991" cy="294.2820323027553" fill="none" r="12" /></g><g stroke="blue" stroke-width="2"><path d="M 177.235429,265.304258 m 36.742346,21.213203 a 26.568542,26.568542 0 0,1 18.786797,-32.539686 m -36.742346,-21.213203 a 26.568542,26.568542 0 0,1 -18.786797,32.539686" fill="none" /></g></svg>