<?xml version="1.0" encoding="utf-8" ?>
<svg baseProfile="full" height="900" version="1.1" width="900" xmlns="http://www.w3.org/2000/svg" xmlns:ev="http://www.w3.org/2001/xml-events" xmlns:xlink="http://www.w3.org/1999/xlink"><defs /><g stroke="red" stroke-width="2" transform="translate(450.000000,225.000000),rotate(0.000000,0,0)"><path d="M 21.213203,-21.213203 a 30.000000,30.000000 0 1,0 0.000000,42.426407 a 26.568542,26.568542 0 0,1 37.573593,0.000000 a 30.000000,30.000000 0 1,0 0.000000,-42.426407 a 26.568542,26.568542 0 0,1 -37.573593,0.000000 Z" fill="none" /><circle cx="0" cy="0" fill="none" r="12" /><circle cx="80" cy="0" fill="none" r="12" /></g><g stroke="blue" stroke-width="2" transform="translate(530.000000,225.000000),rotate(22.500000,0,0)"><path d="M 21.213203,21.213203 a 26.568542,26.568542 0 0,1 37.573593,0.000000 m 0.000000,-42.426407 a 26.568542,26.568542 0 0,1 -37.573593,0.000000" fill="none" /></g><g stroke="red" stroke-width="2" transform="translate(603.910363,255.614675),rotate(45.000000,0,0)"><path d="M 21.213203,-21.213203 a 30.000000,30.000000 0 1,0 0.000000,42.426407 a 26.568542,26.568542 0 0,1 37.573593,0.000000 a 30.000000,30.000000 0 1,0 0.000000,-42.426407 a 26.568542,26.568542 0 0,1 -37.573593,0.000000 Z" fill="none" /><circle cx="0" cy="0" fill="none" r="12" /><circle cx="80" cy="0" fill="none" r="12" /></g><g stroke="blue" stroke-width="2" transform="translate(660.478905,312.183217),rotate(67.500000,0,0)"><path d="M 21.213203,21.213203 a 26.568542,26.568542 0 0,1 37.573593,0.000000 m 0.000000,-42.426407 a 26.568542,26.568542 0 0,1 -37.573593,0.000000" fill="none" /></g><g stroke="red" stroke-width="2" transform="translate(691.093580,386.093580),rotate(90.000000,0,0)"><path d="M 21.213203,-21.213203 a 30.000000,30.000000 0 1,0 0.000000,42.426407 a 26.568542,26.568542 0 0,1 37.573593,0.000000 a 30.000000,30.000000 0 1,0 0.000000,-42.426407 a 26.568542,26.568542 0 0,1 -37.573593,0.000000 Z" fill="none" /><circle cx="0" cy="0" fill="none" r="12" /><circle cx="80" cy="0" fill="none" r="12" /></g><g stroke="blue" stroke-width="2" transform="translate(691.093580,466.093580),rotate(112.500000,0,0)"><path d="M 21.213203,21.213203 a 26.568542,26.568542 0 0,1 37.573593,0.000000 m 0.000000,-42.426407 a 26.568542,26.568542 0 0,1 -37.573593,0.000000" fill="none" /></g><g stroke="red" stroke-width="2" transform="translate(660.478905,540.003942),rotate(135.000000,0,0)"><path d="M 21.213203,-21.213203 a 30.000000,30.000000 0 1,0 0.000000,42.426407 a 26.568542,26.568542 0 0,1 37.573593,0.000000 a 30.000000,30.000000 0 1,0 0.000000,-42.426407 a 26.568542,26.568542 0 0,1 -37.573593,0.000000 Z" fill="none" /><circle cx="0" cy="0" fill="none" r="12" /><circle cx="80" cy="0" fill="none" r="12" /></g><g stroke="blue" stroke-width="2" transform="translate(603.910363,596.572485),rotate(157.500000,0,0)"><path d="M 21.213203,21.213203 a 26.568542,26.568542 0 0,1 37.573593,0.000000 m 0.000000,-42.426407 a 26.568542,26.568542 0 0,1 -37.573593,0.000000" fill="none" /></g><g stroke="red" stroke-width="2" transform="translate(530.000000,627.187159),rotate(180.000000,0,0)"><path d="M 21.213203,-21.213203 a 30.000000,30.000000 0 1,0 0.000000,42.426407 a 26.568542,26.568542 0 0,1 37.573593,0.000000 a 30.000000,30.000000 0 1,0 0.000000,-42.426407 a 26.568542,26.568542 0 0,1 -37.573593,0.000000 Z" fill="none" /><circle cx="0" cy="0" fill="none" r="12" /><circle cx="80" cy="0" fill="none" r="12" /></g><g stroke="blue" stroke-width="2" transform="translate(450.000000,627.187159),rotate(202.500000,0,0)"><path d="M 21.213203,21.213203 a 26.568542,26.568542 0 0,1 37.573593,0.000000 m 0.000000,-42.426407 a 26.568542,26.568542 0 0,1 -37.573593,0.000000" fill="none" /></g><g stroke="red" stroke-width="2" transform="translate(376.089637,596.572485),rotate(225.000000,0,0)"><path d="M 21.213203,-21.213203 a 30.000000,30.000000 0 1,0 0.000000,42.426407 a 26.568542,26.568542 0 0,1 37.573593,0.000000 a 30.000000,30.000000 0 1,0 0.000000,-42.426407 a 26.568542,26.568542 0 0,1 -37.573593,0.000000 Z" fill="none" /><circle cx="0" cy="0" fill="none" r="12" /><circle cx="80" cy="0" fill="none" r="12" /></g><g stroke="blue" stroke-width="2" transform="translate(319.521095,540.003942),rotate(247.500000,0,0)"><path d="M 21.213203,21.213203 a 26.568542,26.568542 0 0,1 37.573593,0.000000 m 0.000000,-42.426407 a 26.568542,26.568542 0 0,1 -37.573593,0.000000" fill="none" /></g><g stroke="red" stroke-width="2" transform="translate(288.906420,466.093580),rotate(270.000000,0,0)"><path d="M 21.213203,-21.213203 a 30.000000,30.000000 0 1,0 0.000000,42.426407 a 26.568542,26.568542 0 0,1 37.573593,0.000000 a 30.000000,30.000000 0 1,0 0.000000,-42.426407 a 26.568542,26.568542 0 0,1 -37.573593,0.000000 Z" fill="none" /><circle cx="0" cy="0" fill="none" r="12" /><circle cx="80" cy="0" fill="none" r="12" /></g><g stroke="blue" stroke-width="2" transform="translate(288.906420,386.093580),rotate(292.500000,0,0)"><path d="M 21.213203,21.213203 a 26.568542,26.568542 0 0,1 37.573593,0.000000 m 0.000000,-42.426407 a 26.568542,26.568542 0 0,1 -37.573593,0.000000" fill="none" /></g><g stroke="red" stroke-width="2" transform="translate(319.521095,312.183217),rotate(315.000000,0,0)"><path d="M 21.213203,-21.213203 a 30.000000,30.000000 0 1,0 0.000000,42.426407 a 26.568542,26.568542 0 0,1 37.573593,0.000000 a 30.000000,30.000000 0 1,0 0.000000,-42.426407 a 26.568542,26.568542 0 0,1 -37.573593,0.000000 Z" fill="none" /><circle cx="0" cy="0" fill="none" r="12" /><circle cx="80" cy="0" fill="none" r="12" /></g><g stroke="blue" stroke-width="2" transform="translate(376.089637,255.614675),rotate(337.500000,0,0)"><path d="M 21.213203,21.213203 a 26.568542,26.568542 0 0,1 37.573593,0.000000 m 0.000000,-42.426407 a 26.568542,26.568542 0 0,1 -37.573593,0.000000" fill="none" /></g></svg>