<?xml version="1.0" encoding="utf-8" ?>
<svg baseProfile="full" height="900" version="1.1" width="900" xmlns="http://www.w3.org/2000/svg" xmlns:ev="http://www.w3.org/2001/xml-events" xmlns:xlink="http://www.w3.org/1999/xlink"><defs /><g stroke="red" stroke-width="2"><path d="M 246.213203,203.786797 a 30.000000,30.000000 0 1,0 -0.000000,42.426407 a 26.568542,26.568542 0 0,1 37.573593,0.000000 a 30.000000,30.000000 0 1,0 0.000000,-42.426407 a 26.568542,26.568542 0 0,1 -37.573593,-0.000000 Z" fill="none" /><circle cx="225.0" cy="225.0" fill="none" r="12" /><circle cx="305.0" cy="225.0" fill="none" r="12" /></g><g stroke="blue" stroke-width="2"><path d="M 326.213203,203.786797 m -0.000000,42.426407 a 26.568542,26.568542 0 0,1 37.573593,0.000000 m 0.000000,-42.426407 a 26.568542,26.568542 0 0,1 -37.573593,-0.000000" fill="none" /></g><g stroke="red" stroke-width="2"><path d="M 406.213203,203.786797 a 30.000000,30.000000 0 1,0 -0.000000,42.426407 a 26.568542,26.568542 0 0,1 37.573593,0.000000 a 30.000000,30.000000 0 1,0 0.000000,-42.426407 a 26.568542,26.568542 0 0,1 -37.573593,-0.000000 Z" fill="none" /><circle cx="385.0" cy="225.0" fill="none" r="12" /><circle cx="465.0" cy="225.0" fill="none" r="12" /></g><g stroke="blue" stroke-width="2"><path d="M 486.213203,203.786797 m -0.000000,42.426407 a 26.568542,26.568542 0 0,1 37.573593,0.000000 m 0.000000,-42.426407 a 26.568542,26.568542 0 0,1 -37.573593,-0.000000" fill="none" /></g><g stroke="red" stroke-width="2"><path d="M 566.213203,246.213203 a 30.000000,30.000000 0 1,0 -42.426407,0.000000 a 26.568542,26.568542 0 0,1 0.000000,37.573593 a 30.000000,30.000000 0 1,0 42.426407,-0.000000 a 26.568542,26.568542 0 0,1 -0.000000,-37.573593 Z" fill="none" /><circle cx="545.0" cy="225.0" fill="none" r="12" /><circle cx="545.0" cy="305.0" fill="none" r="12" /></g><g stroke="blue" stroke-width="2"><path d="M 566.213203,326.213203 m -42.426407,0.000000 a 26.568542,26.568542 0 0,1 0.000000,37.573593 m 42.426407,-0.000000 a 26.568542,26.568542 0 0,1 -0.000000,-37.573593" fill="none" /></g><g stroke="red" stroke-width="2"><path d="M 566.213203,406.213203 a 30.000000,30.000000 0 1,0 -42.426407,0.000000 a 26.568542,26.568542 0 0,1 0.000000,37.573593 a 30.000000,30.000000 0 1,0 42.426407,-0.000000 a 26.568542,26.568542 0 0,1 -0.000000,-37.573593 Z" fill="none" /><circle cx="545.0" cy="385.0" fill="none" r="12" /><circle cx="545.0" cy="465.0" fill="none" r="12" /></g><g stroke="blue" stroke-width="2"><path d="M 566.213203,486.213203 m -42.426407,0.000000 a 26.568542,26.568542 0 0,1 0.000000,37.573593 m 42.426407,-0.000000 a 26.568542,26.568542 0 0,1 -0.000000,-37.573593" fill="none" /></g><g stroke="red" stroke-width="2"><path d="M 523.786797,566.213203 a 30.000000,30.000000 0 1,0 -0.000000,-42.426407 a 26.568542,26.568542 0 0,1 -37.573593,0.000000 a 30.000000,30.000000 0 1,0 0.000000,42.426407 a 26.568542,26.568542 0 0,1 37.573593,-0.000000 Z" fill="none" /><circle cx="545.0" cy="545.0" fill="none" r="12" /><circle cx="465.0" cy="545.0" fill="none" r="12" /></g><g stroke="blue" stroke-width="2"><path d="M 443.786797,566.213203 m -0.000000,-42.426407 a 26.568542,26.568542 0 0,1 -37.573593,0.000000 m 0.000000,42.426407 a 26.568542,26.568542 0 0,1 37.573593,-0.000000" fill="none" /></g><g stroke="red" stroke-width="2"><path d="M 363.786797,566.213203 a 30.000000,30.000000 0 1,0 -0.000000,-42.426407 a 26.568542,26.568542 0 0,1 -37.573593,0.000000 a 30.000000,30.000000 0 1,0 0.000000,42.426407 a 26.568542,26.568542 0 0,1 37.573593,-0.000000 Z" fill="none" /><circle cx="385.0" cy="545.0" fill="none" r="12" /><circle cx="305.0" cy="545.0" fill="none" r="12" /></g><g stroke="blue" stroke-width="2"><path d="M 283.786797,566.213203 m -0.000000,-42.426407 a 26.568542,26.568542 0 0,1 -37.573593,0.000000 m 0.000000,42.426407 a 26.568542,26.568542 0 0,1 37.573593,-0.000000" fill="none" /></g><g stroke="red" stroke-width="2"><path d="M 203.786797,523.786797 a 30.000000,30.000000 0 1,0 42.426407,-0.000000 a 26.568542,26.568542 0 0,1 -0.000000,-37.573593 a 30.000000,30.000000 0 1,0 -42.426407,0.000000 a 26.568542,26.568542 0 0,1 0.000000,37.573593 Z" fill="none" /><circle cx="225.0" cy="545.0" fill="none" r="12" /><circle cx="224.99999999999997" cy="465.0" fill="none" r="12" /></g><g stroke="blue" stroke-width="2"><path d="M 203.786797,443.786797 m 42.426407,-0.000000 a 26.568542,26.568542 0 0,1 -0.000000,-37.573593 m -42.426407,0.000000 a 26.568542,26.568542 0 0,1 0.000000,37.573593" fill="none" /></g><g stroke="red" stroke-width="2"><path d="M 203.786797,363.786797 a 30.000000,30.000000 0 1,0 42.426407,-0.000000 a 26.568542,26.568542 0 0,1 -0.000000,-37.573593 a 30.000000,30.000000 0 1,0 -42.426407,0.000000 a 26.568542,26.568542 0 0,1 0.000000,37.573593 Z" fill="none" /><circle cx="224.99999999999994" cy="385.0" fill="none" r="12" /><circle cx="224.99999999999991" cy="305.0" fill="none" r="12" /></g><g stroke="blue" stroke-width="2"><path d="M 203.786797,283.786797 m 42.426407,-0.000000 a 26.568542,26.568542 0 0,1 -0.000000,-37.573593 m -42.426407,0.000000 a 26.568542,26.568542 0 0,1 0.000000,37.573593" fill="none" /></g></svg>