<?xml version="1.0" encoding="utf-8" ?>
<svg baseProfile="full" height="900" version="1.1" width="900" xmlns="http://www.w3.org/2000/svg" xmlns:ev="http://www.w3.org/2001/xml-events" xmlns:xlink="http://www.w3.org/1999/xlink"><defs /><g stroke="red" stroke-width="2"><path d="M 246.213203,203.786797 a 30.000000,30.000000 0 1,0 -0.000000,42.426407 a 26.568542,26.568542 0 0,1 37.573593,0.000000 a 30.000000,30.000000 0 1,0 0.000000,-42.426407 a 26.568542,26.568542 0 0,1 -37.573593,-0.000000 Z" fill="none" /><circle cx="225.0" cy="225.0" fill="none" r="12" /><circle cx="305.0" cy="225.0" fill="none" r="12" /></g><g stroke="blue" stroke-width="2"><path d="M 332.716386,213.519497 m -16.235883,39.196889 a 26.568542,26.568542 0 0,1 34.713474,14.378792 m 16.235883,-39.196889 a 26.568542,26.568542 0 0,1 -34.713474,-14.378792" fill="none" /></g><g stroke="red" stroke-width="2"><path d="M 408.910363,255.614675 a 30.000000,30.000000 0 1,0 -30.000000,30.000000 a 26.568542,26.568542 0 0,1 26.568542,26.568542 a 30.000000,30.000000 0 1,0 30.000000,-30.000000 a 26.568542,26.568542 0 0,1 -26.568542,-26.568542 Z" fill="none" /><circle cx="378.91036260090294" cy="255.6146745892072" fill="none" r="12" /><circle cx="435.47890509582675" cy="312.183217084131" fill="none" r="12" /></g><g stroke="blue" stroke-width="2"><path d="M 463.195291,323.663720 m -39.196889,16.235883 a 26.568542,26.568542 0 0,1 14.378792,34.713474 m 39.196889,-16.235883 a 26.568542,26.568542 0 0,1 -14.378792,-34.713474" fill="none" /></g><g stroke="red" stroke-width="2"><path d="M 487.306783,407.306783 a 30.000000,30.000000 0 1,0 -42.426407,0.000000 a 26.568542,26.568542 0 0,1 0.000000,37.573593 a 30.000000,30.000000 0 1,0 42.426407,-0.000000 a 26.568542,26.568542 0 0,1 -0.000000,-37.573593 Z" fill="none" /><circle cx="466.09357968503394" cy="386.09357968503394" fill="none" r="12" /><circle cx="466.09357968503394" cy="466.09357968503394" fill="none" r="12" /></g><g stroke="blue" stroke-width="2"><path d="M 477.574083,493.809966 m -39.196889,-16.235883 a 26.568542,26.568542 0 0,1 -14.378792,34.713474 m 39.196889,16.235883 a 26.568542,26.568542 0 0,1 14.378792,-34.713474" fill="none" /></g><g stroke="red" stroke-width="2"><path d="M 435.478905,570.003942 a 30.000000,30.000000 0 1,0 -30.000000,-30.000000 a 26.568542,26.568542 0 0,1 -26.568542,26.568542 a 30.000000,30.000000 0 1,0 30.000000,30.000000 a 26.568542,26.568542 0 0,1 26.568542,-26.568542 Z" fill="none" /><circle cx="435.47890509582675" cy="540.0039422859369" fill="none" r="12" /><circle cx="378.91036260090294" cy="596.5724847808607" fill="none" r="12" /></g><g stroke="blue" stroke-width="2"><path d="M 367.429860,624.288871 m -16.235883,-39.196889 a 26.568542,26.568542 0 0,1 -34.713474,14.378792 m 16.235883,39.196889 a 26.568542,26.568542 0 0,1 34.713474,-14.378792" fill="none" /></g><g stroke="red" stroke-width="2"><path d="M 283.786797,648.400363 a 30.000000,30.000000 0 1,0 -0.000000,-42.426407 a 26.568542,26.568542 0 0,1 -37.573593,0.000000 a 30.000000,30.000000 0 1,0 0.000000,42.426407 a 26.568542,26.568542 0 0,1 37.573593,-0.000000 Z" fill="none" /><circle cx="305.0" cy="627.1871593700679" fill="none" r="12" /><circle cx="225.0" cy="627.1871593700679" fill="none" r="12" /></g><g stroke="blue" stroke-width="2"><path d="M 197.283614,638.667662 m 16.235883,-39.196889 a 26.568542,26.568542 0 0,1 -34.713474,-14.378792 m -16.235883,39.196889 a 26.568542,26.568542 0 0,1 34.713474,14.378792" fill="none" /></g><g stroke="red" stroke-width="2"><path d="M 121.089637,596.572485 a 30.000000,30.000000 0 1,0 30.000000,-30.000000 a 26.568542,26.568542 0 0,1 -26.568542,-26.568542 a 30.000000,30.000000 0 1,0 -30.000000,30.000000 a 26.568542,26.568542 0 0,1 26.568542,26.568542 Z" fill="none" /><circle cx="151.08963739909706" cy="596.5724847808607" fill="none" r="12" /><circle cx="94.52109490417324" cy="540.0039422859369" fill="none" r="12" /></g><g stroke="blue" stroke-width="2"><path d="M 66.804709,528.523439 m 39.196889,-16.235883 a 26.568542,26.568542 0 0,1 -14.378792,-34.713474 m -39.196889,16.235883 a 26.568542,26.568542 0 0,1 14.378792,34.713474" fill="none" /></g><g stroke="red" stroke-width="2"><path d="M 42.693217,444.880376 a 30.000000,30.000000 0 1,0 42.426407,-0.000000 a 26.568542,26.568542 0 0,1 -0.000000,-37.573593 a 30.000000,30.000000 0 1,0 -42.426407,0.000000 a 26.568542,26.568542 0 0,1 0.000000,37.573593 Z" fill="none" /><circle cx="63.90642031496608" cy="466.09357968503394" fill="none" r="12" /><circle cx="63.90642031496606" cy="386.09357968503394" fill="none" r="12" /></g><g stroke="blue" stroke-width="2"><path d="M 52.425917,358.377194 m 39.196889,16.235883 a 26.568542,26.568542 0 0,1 14.378792,-34.713474 m -39.196889,-16.235883 a 26.568542,26.568542 0 0,1 -14.378792,34.713474" fill="none" /></g><g stroke="red" stroke-width="2"><path d="M 94.521095,282.183217 a 30.000000,30.000000 0 1,0 30.000000,30.000000 a 26.568542,26.568542 0 0,1 26.568542,-26.568542 a 30.000000,30.000000 0 1,0 -30.000000,-30.000000 a 26.568542,26.568542 0 0,1 -26.568542,26.568542 Z" fill="none" /><circle cx="94.52109490417327" cy="312.183217084131" fill="none" r="12" /><circle cx="151.08963739909706" cy="255.6146745892072" fill="none" r="12" /></g><g stroke="blue" stroke-width="2"><path d="M 162.570140,227.898289 m 16.235883,39.196889 a 26.568542,26.568542 0 0,1 34.713474,-14.378792 m -16.235883,-39.196889 a 26.568542,26.568542 0 0,1 -34.713474,14.378792" fill="none" /></g></svg>