<?xml version="1.0" encoding="utf-8" ?>
<svg baseProfile="full" height="900" version="1.1" width="900" xmlns="http://www.w3.org/2000/svg" xmlns:ev="http://www.w3.org/2001/xml-events" xmlns:xlink="http://www.w3.org/1999/xlink"><defs /><g stroke="red" stroke-width="2"><path d="M 471.213203,203.786797 a 30.000000,30.000000 0 1,0 -0.000000,42.426407 a 26.568542,26.568542 0 0,1 37.573593,0.000000 a 30.000000,30.000000 0 1,0 0.000000,-42.426407 a 26.568542,26.568542 0 0,1 -37.573593,-0.000000 Z" fill="none" /><circle cx="450.0" cy="225.0" fill="none" r="12" /><circle cx="530.0" cy="225.0" fill="none" r="12" /></g><g stroke="blue" stroke-width="2"><path d="M 557.716386,213.519497 m -16.235883,39.196889 a 26.568542,26.568542 0 0,1 34.713474,14.378792 m 16.235883,-39.196889 a 26.568542,26.568542 0 0,1 -34.713474,-14.378792" fill="none" /></g><g stroke="red" stroke-width="2"><path d="M 633.910363,255.614675 a 30.000000,30.000000 0 1,0 -30.000000,30.000000 a 26.568542,26.568542 0 0,1 26.568542,26.568542 a 30.000000,30.000000 0 1,0 30.000000,-30.000000 a 26.568542,26.568542 0 0,1 -26.568542,-26.568542 Z" fill="none" /><circle cx="603.910362600903" cy="255.6146745892072" fill="none" r="12" /><circle cx="660.4789050958268" cy="312.183217084131" fill="none" r="12" /></g><g stroke="blue" stroke-width="2"><path d="M 688.195291,323.663720 m -39.196889,16.235883 a 26.568542,26.568542 0 0,1 14.378792,34.713474 m 39.196889,-16.235883 a 26.568542,26.568542 0 0,1 -14.378792,-34.713474" fill="none" /></g><g stroke="red" stroke-width="2"><path d="M 712.306783,407.306783 a 30.000000,30.000000 0 1,0 -42.426407,0.000000 a 26.568542,26.568542 0 0,1 0.000000,37.573593 a 30.000000,30.000000 0 1,0 42.426407,-0.000000 a 26.568542,26.568542 0 0,1 -0.000000,-37.573593 Z" fill="none" /><circle cx="691.093579685034" cy="386.09357968503394" fill="none" r="12" /><circle cx="691.093579685034" cy="466.09357968503394" fill="none" r="12" /></g><g stroke="blue" stroke-width="2"><path d="M 702.574083,493.809966 m -39.196889,-16.235883 a 26.568542,26.568542 0 0,1 -14.378792,34.713474 m 39.196889,16.235883 a 26.568542,26.568542 0 0,1 14.378792,-34.713474" fill="none" /></g><g stroke="red" stroke-width="2"><path d="M 660.478905,570.003942 a 30.000000,30.000000 0 1,0 -30.000000,-30.000000 a 26.568542,26.568542 0 0,1 -26.568542,26.568542 a 30.000000,30.000000 0 1,0 30.000000,30.000000 a 26.568542,26.568542 0 0,1 26.568542,-26.568542 Z" fill="none" /><circle cx="660.4789050958268" cy="540.0039422859369" fill="none" r="12" /><circle cx="603.910362600903" cy="596.5724847808607" fill="none" r="12" /></g><g stroke="blue" stroke-width="2"><path d="M 592.429860,624.288871 m -16.235883,-39.196889 a 26.568542,26.568542 0 0,1 -34.713474,14.378792 m 16.235883,39.196889 a 26.568542,26.568542 0 0,1 34.713474,-14.378792" fill="none" /></g><g stroke="red" stroke-width="2"><path d="M 508.786797,648.400363 a 30.000000,30.000000 0 1,0 -0.000000,-42.426407 a 26.568542,26.568542 0 0,1 -37.573593,0.000000 a 30.000000,30.000000 0 1,0 0.000000,42.426407 a 26.568542,26.568542 0 0,1 37.573593,-0.000000 Z" fill="none" /><circle cx="530.0" cy="627.1871593700679" fill="none" r="12" /><circle cx="450.0" cy="627.1871593700679" fill="none" r="12" /></g><g stroke="blue" stroke-width="2"><path d="M 422.283614,638.667662 m 16.235883,-39.196889 a 26.568542,26.568542 0 0,1 -34.713474,-14.378792 m -16.235883,39.196889 a 26.568542,26.568542 0 0,1 34.713474,14.378792" fill="none" /></g><g stroke="red" stroke-width="2"><path d="M 346.089637,596.572485 a 30.000000,30.000000 0 1,0 30.000000,-30.000000 a 26.568542,26.568542 0 0,1 -26.568542,-26.568542 a 30.000000,30.000000 0 1,0 -30.000000,30.000000 a 26.568542,26.568542 0 0,1 26.568542,26.568542 Z" fill="none" /><circle cx="376.08963739909706" cy="596.5724847808607" fill="none" r="12" /><circle cx="319.52109490417325" cy="540.0039422859369" fill="none" r="12" /></g><g stroke="blue" stroke-width="2"><path d="M 291.804709,528.523439 m 39.196889,-16.235883 a 26.568542,26.568542 0 0,1 -14.378792,-34.713474 m -39.196889,16.235883 a 26.568542,26.568542 0 0,1 14.378792,34.713474" fill="none" /></g><g stroke="red" stroke-width="2"><path d="M 267.693217,444.880376 a 30.000000,30.000000 0 1,0 42.426407,-0.000000 a 26.568542,26.568542 0 0,1 -0.000000,-37.573593 a 30.000000,30.000000 0 1,0 -42.426407,0.000000 a 26.568542,26.568542 0 0,1 0.000000,37.573593 Z" fill="none" /><circle cx="288.9064203149661" cy="466.09357968503394" fill="none" r="12" /><circle cx="288.9064203149661" cy="386.09357968503394" fill="none" r="12" /></g><g stroke="blue" stroke-width="2"><path d="M 277.425917,358.377194 m 39.196889,16.235883 a 26.568542,26.568542 0 0,1 14.378792,-34.713474 m -39.196889,-16.235883 a 26.568542,26.568542 0 0,1 -14.378792,34.713474" fill="none" /></g><g stroke="red" stroke-width="2"><path d="M 319.521095,282.183217 a 30.000000,30.000000 0 1,0 30.000000,30.000000 a 26.568542,26.568542 0 0,1 26.568542,-26.568542 a 30.000000,30.000000 0 1,0 -30.000000,-30.000000 a 26.568542,26.568542 0 0,1 -26.568542,26.568542 Z" fill="none" /><circle cx="319.5210949041733" cy="312.183217084131" fill="none" r="12" /><circle cx="376.0896373990971" cy="255.6146745892072" fill="none" r="12" /></g><g stroke="blue" stroke-width="2"><path d="M 387.570140,227.898289 m 16.235883,39.196889 a 26.568542,26.568542 0 0,1 34.713474,-14.378792 m -16.235883,-39.196889 a 26.568542,26.568542 0 0,1 -34.713474,14.378792" fill="none" /></g></svg>