<?xml version="1.0" encoding="utf-8" ?>
<svg baseProfile="full" height="900" version="1.1" width="900" xmlns="http://www.w3.org/2000/svg" xmlns:ev="http://www.w3.org/2001/xml-events" xmlns:xlink="http://www.w3.org/1999/xlink"><defs /><g stroke="red" stroke-width="2" transform="rotate(0,450,200)"><path d="M 450,200 m 21,-21 a 30,30 0 1,0 0,42 a 26,26 0 0,1 37,0 a 30,30 0 1,0 0,-42 a 26,26 0 0,1 -37,0 Z" fill="none" /><circle cx="450" cy="200" fill="none" r="12" /><circle cx="530" cy="200" fill="none" r="12" /></g><g stroke="blue" stroke-width="2" transform="rotate(120,530,200)"><path d="M 530,200 m 21,21 a 26,26 0 0,1 37,0 m 0,-42 a 26,26 0 0,1 -37,0" fill="none" /></g><g stroke="red" stroke-width="2" transform="rotate(60,490,269)"><path d="M 490,269 m 21,-21 a 30,30 0 1,0 0,42 a 26,26 0 0,1 37,0 a 30,30 0 1,0 0,-42 a 26,26 0 0,1 -37,0 Z" fill="none" /><circle cx="490.0" cy="269.2820323027551" fill="none" r="12" /><circle cx="570.0" cy="269.2820323027551" fill="none" r="12" /></g><g stroke="blue" stroke-width="2" transform="rotate(180,530,338)"><path d="M 530,338 m 21,21 a 26,26 0 0,1 37,0 m 0,-42 a 26,26 0 0,1 -37,0" fill="none" /></g><g stroke="red" stroke-width="2" transform="rotate(120,450,338)"><path d="M 450,338 m 21,-21 a 30,30 0 1,0 0,42 a 26,26 0 0,1 37,0 a 30,30 0 1,0 0,-42 a 26,26 0 0,1 -37,0 Z" fill="none" /><circle cx="450.0" cy="338.5640646055102" fill="none" r="12" /><circle cx="530.0" cy="338.5640646055102" fill="none" r="12" /></g><g stroke="blue" stroke-width="2" transform="rotate(240,410,407)"><path d="M 410,407 m 21,21 a 26,26 0 0,1 37,0 m 0,-42 a 26,26 0 0,1 -37,0" fill="none" /></g><g stroke="red" stroke-width="2" transform="rotate(180,369,338)"><path d="M 369,338 m 21,-21 a 30,30 0 1,0 0,42 a 26,26 0 0,1 37,0 a 30,30 0 1,0 0,-42 a 26,26 0 0,1 -37,0 Z" fill="none" /><circle cx="369.99999999999994" cy="338.5640646055103" fill="none" r="12" /><circle cx="449.99999999999994" cy="338.5640646055103" fill="none" r="12" /></g><g stroke="blue" stroke-width="2" transform="rotate(300,289,338)"><path d="M 289,338 m 21,21 a 26,26 0 0,1 37,0 m 0,-42 a 26,26 0 0,1 -37,0" fill="none" /></g><g stroke="red" stroke-width="2" transform="rotate(240,329,269)"><path d="M 329,269 m 21,-21 a 30,30 0 1,0 0,42 a 26,26 0 0,1 37,0 a 30,30 0 1,0 0,-42 a 26,26 0 0,1 -37,0 Z" fill="none" /><circle cx="329.99999999999994" cy="269.28203230275517" fill="none" r="12" /><circle cx="409.99999999999994" cy="269.28203230275517" fill="none" r="12" /></g><g stroke="blue" stroke-width="2" transform="rotate(360,289,200)"><path d="M 289,200 m 21,21 a 26,26 0 0,1 37,0 m 0,-42 a 26,26 0 0,1 -37,0" fill="none" /></g><g stroke="red" stroke-width="2" transform="rotate(300,369,200)"><path d="M 369,200 m 21,-21 a 30,30 0 1,0 0,42 a 26,26 0 0,1 37,0 a 30,30 0 1,0 0,-42 a 26,26 0 0,1 -37,0 Z" fill="none" /><circle cx="369.9999999999999" cy="200.00000000000009" fill="none" r="12" /><circle cx="449.9999999999999" cy="200.00000000000009" fill="none" r="12" /></g><g stroke="blue" stroke-width="2" transform="rotate(420,409,130)"><path d="M 409,130 m 21,21 a 26,26 0 0,1 37,0 m 0,-42 a 26,26 0 0,1 -37,0" fill="none" /></g></svg>