<?xml version="1.0" encoding="utf-8" ?>
<svg baseProfile="full" height="900" version="1.1" width="900" xmlns="http://www.w3.org/2000/svg" xmlns:ev="http://www.w3.org/2001/xml-events" xmlns:xlink="http://www.w3.org/1999/xlink"><defs /><g stroke="red" stroke-width="2" transform="rotate(0.000000,450.000000,200.000000)"><path d="M 450.000000,200.000000 m 21.213203,-21.213203 a 30.000000,30.000000 0 1,0 0.000000,42.426407 a 26.568542,26.568542 0 0,1 37.573593,0.000000 a 30.000000,30.000000 0 1,0 0.000000,-42.426407 a 26.568542,26.568542 0 0,1 -37.573593,0.000000 Z" fill="none" /><circle cx="450" cy="200" fill="none" r="12" /><circle cx="530" cy="200" fill="none" r="12" /></g><g stroke="blue" stroke-width="2" transform="rotate(120.000000,530.000000,200.000000)"><path d="M 530.000000,200.000000 m 21.213203,21.213203 a 26.568542,26.568542 0 0,1 37.573593,0.000000 m 0.000000,-42.426407 a 26.568542,26.568542 0 0,1 -37.573593,0.000000" fill="none" /></g><g stroke="red" stroke-width="2" transform="rotate(60.000000,490.000000,269.282032)"><path d="M 490.000000,269.282032 m 21.213203,-21.213203 a 30.000000,30.000000 0 1,0 0.000000,42.426407 a 26.568542,26.568542 0 0,1 37.573593,0.000000 a 30.000000,30.000000 0 1,0 0.000000,-42.426407 a 26.568542,26.568542 0 0,1 -37.573593,0.000000 Z" fill="none" /><circle cx="490.0" cy="269.2820323027551" fill="none" r="12" /><circle cx="570.0" cy="269.2820323027551" fill="none" r="12" /></g><g stroke="blue" stroke-width="2" transform="rotate(180.000000,530.000000,338.564065)"><path d="M 530.000000,338.564065 m 21.213203,21.213203 a 26.568542,26.568542 0 0,1 37.573593,0.000000 m 0.000000,-42.426407 a 26.568542,26.568542 0 0,1 -37.573593,0.000000" fill="none" /></g><g stroke="red" stroke-width="2" transform="rotate(120.000000,450.000000,338.564065)"><path d="M 450.000000,338.564065 m 21.213203,-21.213203 a 30.000000,30.000000 0 1,0 0.000000,42.426407 a 26.568542,26.568542 0 0,1 37.573593,0.000000 a 30.000000,30.000000 0 1,0 0.000000,-42.426407 a 26.568542,26.568542 0 0,1 -37.573593,0.000000 Z" fill="none" /><circle cx="450.0" cy="338.5640646055102" fill="none" r="12" /><circle cx="530.0" cy="338.5640646055102" fill="none" r="12" /></g><g stroke="blue" stroke-width="2" transform="rotate(240.000000,410.000000,407.846097)"><path d="M 410.000000,407.846097 m 21.213203,21.213203 a 26.568542,26.568542 0 0,1 37.573593,0.000000 m 0.000000,-42.426407 a 26.568542,26.568542 0 0,1 -37.573593,0.000000" fill="none" /></g><g stroke="red" stroke-width="2" transform="rotate(180.000000,370.000000,338.564065)"><path d="M 370.000000,338.564065 m 21.213203,-21.213203 a 30.000000,30.000000 0 1,0 0.000000,42.426407 a 26.568542,26.568542 0 0,1 37.573593,0.000000 a 30.000000,30.000000 0 1,0 0.000000,-42.426407 a 26.568542,26.568542 0 0,1 -37.573593,0.000000 Z" fill="none" /><circle cx="369.99999999999994" cy="338.5640646055103" fill="none" r="12" /><circle cx="449.99999999999994" cy="338.5640646055103" fill="none" r="12" /></g><g stroke="blue" stroke-width="2" transform="rotate(300.000000,290.000000,338.564065)"><path d="M 290.000000,338.564065 m 21.213203,21.213203 a 26.568542,26.568542 0 0,1 37.573593,0.000000 m 0.000000,-42.426407 a 26.568542,26.568542 0 0,1 -37.573593,0.000000" fill="none" /></g><g stroke="red" stroke-width="2" transform="rotate(240.000000,330.000000,269.282032)"><path d="M 330.000000,269.282032 m 21.213203,-21.213203 a 30.000000,30.000000 0 1,0 0.000000,42.426407 a 26.568542,26.568542 0 0,1 37.573593,0.000000 a 30.000000,30.000000 0 1,0 0.000000,-42.426407 a 26.568542,26.568542 0 0,1 -37.573593,0.000000 Z" fill="none" /><circle cx="329.99999999999994" cy="269.28203230275517" fill="none" r="12" /><circle cx="409.99999999999994" cy="269.28203230275517" fill="none" r="12" /></g><g stroke="blue" stroke-width="2" transform="rotate(360.000000,290.000000,200.000000)"><path d="M 290.000000,200.000000 m 21.213203,21.213203 a 26.568542,26.568542 0 0,1 37.573593,0.000000 m 0.000000,-42.426407 a 26.568542,26.568542 0 0,1 -37.573593,0.000000" fill="none" /></g><g stroke="red" stroke-width="2" transform="rotate(300.000000,370.000000,200.000000)"><path d="M 370.000000,200.000000 m 21.213203,-21.213203 a 30.000000,30.000000 0 1,0 0.000000,42.426407 a 26.568542,26.568542 0 0,1 37.573593,0.000000 a 30.000000,30.000000 0 1,0 0.000000,-42.426407 a 26.568542,26.568542 0 0,1 -37.573593,0.000000 Z" fill="none" /><circle cx="369.9999999999999" cy="200.00000000000009" fill="none" r="12" /><circle cx="449.9999999999999" cy="200.00000000000009" fill="none" r="12" /></g><g stroke="blue" stroke-width="2" transform="rotate(420.000000,410.000000,130.717968)"><path d="M 410.000000,130.717968 m 21.213203,21.213203 a 26.568542,26.568542 0 0,1 37.573593,0.000000 m 0.000000,-42.426407 a 26.568542,26.568542 0 0,1 -37.573593,0.000000" fill="none" /></g></svg>