<?xml version="1.0" encoding="utf-8" ?>
<svg baseProfile="full" height="900" version="1.1" width="900" xmlns="http://www.w3.org/2000/svg" xmlns:ev="http://www.w3.org/2001/xml-events" xmlns:xlink="http://www.w3.org/1999/xlink"><defs /><g stroke="red" stroke-width="2" transform="rotate(0.000000,450.000000,100.000000)"><path d="M 450.000000,100.000000 m 21.213203,-21.213203 a 30.000000,30.000000 0 1,0 0.000000,42.426407 a 26.568542,26.568542 0 0,1 37.573593,0.000000 a 30.000000,30.000000 0 1,0 0.000000,-42.426407 a 26.568542,26.568542 0 0,1 -37.573593,0.000000 Z" fill="none" /><circle cx="450" cy="100" fill="none" r="12" /><circle cx="530" cy="100" fill="none" r="12" /></g><g stroke="blue" stroke-width="2" transform="rotate(60.000000,530.000000,100.000000)"><path d="M 530.000000,100.000000 m 21.213203,21.213203 a 26.568542,26.568542 0 0,1 37.573593,0.000000 m 0.000000,-42.426407 a 26.568542,26.568542 0 0,1 -37.573593,0.000000" fill="none" /></g><g stroke="red" stroke-width="2" transform="rotate(120.000000,570.000000,169.282032)"><path d="M 570.000000,169.282032 m 21.213203,-21.213203 a 30.000000,30.000000 0 1,0 0.000000,42.426407 a 26.568542,26.568542 0 0,1 37.573593,0.000000 a 30.000000,30.000000 0 1,0 0.000000,-42.426407 a 26.568542,26.568542 0 0,1 -37.573593,0.000000 Z" fill="none" /><circle cx="570.0" cy="169.28203230275508" fill="none" r="12" /><circle cx="650.0" cy="169.28203230275508" fill="none" r="12" /></g><g stroke="blue" stroke-width="2" transform="rotate(180.000000,530.000000,238.564065)"><path d="M 530.000000,238.564065 m 21.213203,21.213203 a 26.568542,26.568542 0 0,1 37.573593,0.000000 m 0.000000,-42.426407 a 26.568542,26.568542 0 0,1 -37.573593,0.000000" fill="none" /></g><g stroke="red" stroke-width="2" transform="rotate(240.000000,450.000000,238.564065)"><path d="M 450.000000,238.564065 m 21.213203,-21.213203 a 30.000000,30.000000 0 1,0 0.000000,42.426407 a 26.568542,26.568542 0 0,1 37.573593,0.000000 a 30.000000,30.000000 0 1,0 0.000000,-42.426407 a 26.568542,26.568542 0 0,1 -37.573593,0.000000 Z" fill="none" /><circle cx="450.0" cy="238.5640646055102" fill="none" r="12" /><circle cx="530.0" cy="238.5640646055102" fill="none" r="12" /></g><g stroke="blue" stroke-width="2" transform="rotate(300.000000,410.000000,169.282032)"><path d="M 410.000000,169.282032 m 21.213203,21.213203 a 26.568542,26.568542 0 0,1 37.573593,0.000000 m 0.000000,-42.426407 a 26.568542,26.568542 0 0,1 -37.573593,0.000000" fill="none" /></g></svg>