<?xml version="1.0" encoding="utf-8" ?>
<svg baseProfile="full" height="900" version="1.1" width="900" xmlns="http://www.w3.org/2000/svg" xmlns:ev="http://www.w3.org/2001/xml-events" xmlns:xlink="http://www.w3.org/1999/xlink"><defs /><g stroke="red" stroke-width="2" transform="rotate(0,450,100)"><path d="M 450,100 m 21,-21 a 30,30 0 1,0 0,42 a 26,26 0 0,1 37,0 a 30,30 0 1,0 0,-42 a 26,26 0 0,1 -37,0 Z" fill="none" /><circle cx="450" cy="100" fill="none" r="12" /><circle cx="530" cy="100" fill="none" r="12" /></g><g stroke="blue" stroke-width="2" transform="rotate(60,530,100)"><path d="M 530,100 m 21,21 a 26,26 0 0,1 37,0 m 0,-42 a 26,26 0 0,1 -37,0" fill="none" /></g><g stroke="red" stroke-width="2" transform="rotate(120,570,169)"><path d="M 570,169 m 21,-21 a 30,30 0 1,0 0,42 a 26,26 0 0,1 37,0 a 30,30 0 1,0 0,-42 a 26,26 0 0,1 -37,0 Z" fill="none" /><circle cx="570.0" cy="169.28203230275508" fill="none" r="12" /><circle cx="650.0" cy="169.28203230275508" fill="none" r="12" /></g><g stroke="blue" stroke-width="2" transform="rotate(180,530,238)"><path d="M 530,238 m 21,21 a 26,26 0 0,1 37,0 m 0,-42 a 26,26 0 0,1 -37,0" fill="none" /></g><g stroke="red" stroke-width="2" transform="rotate(240,450,238)"><path d="M 450,238 m 21,-21 a 30,30 0 1,0 0,42 a 26,26 0 0,1 37,0 a 30,30 0 1,0 0,-42 a 26,26 0 0,1 -37,0 Z" fill="none" /><circle cx="450.0" cy="238.5640646055102" fill="none" r="12" /><circle cx="530.0" cy="238.5640646055102" fill="none" r="12" /></g><g stroke="blue" stroke-width="2" transform="rotate(300,409,169)"><path d="M 409,169 m 21,21 a 26,26 0 0,1 37,0 m 0,-42 a 26,26 0 0,1 -37,0" fill="none" /></g></svg>