<?xml version="1.0" encoding="utf-8" ?>
<svg baseProfile="full" height="900" version="1.1" width="900" xmlns="http://www.w3.org/2000/svg" xmlns:ev="http://www.w3.org/2001/xml-events" xmlns:xlink="http://www.w3.org/1999/xlink"><defs /><g stroke="red" stroke-width="2" transform="rotate(0.000000,450.000000,100.000000)"><path d="M 450.000000,100.000000 m 21.213203,-21.213203 a 30.000000,30.000000 0 1,0 0.000000,42.426407 a 26.568542,26.568542 0 0,1 37.573593,0.000000 a 30.000000,30.000000 0 1,0 0.000000,-42.426407 a 26.568542,26.568542 0 0,1 -37.573593,0.000000 Z" fill="none" /><circle cx="450" cy="100" fill="none" r="12" /><circle cx="530" cy="100" fill="none" r="12" /></g><g stroke="blue" stroke-width="2" transform="rotate(22.500000,530.000000,100.000000)"><path d="M 530.000000,100.000000 m 21.213203,21.213203 a 26.568542,26.568542 0 0,1 37.573593,0.000000 m 0.000000,-42.426407 a 26.568542,26.568542 0 0,1 -37.573593,0.000000" fill="none" /></g><g stroke="red" stroke-width="2" transform="rotate(45.000000,603.910363,130.614675)"><path d="M 603.910363,130.614675 m 21.213203,-21.213203 a 30.000000,30.000000 0 1,0 0.000000,42.426407 a 26.568542,26.568542 0 0,1 37.573593,0.000000 a 30.000000,30.000000 0 1,0 0.000000,-42.426407 a 26.568542,26.568542 0 0,1 -37.573593,0.000000 Z" fill="none" /><circle cx="603.910362600903" cy="130.6146745892072" fill="none" r="12" /><circle cx="683.910362600903" cy="130.6146745892072" fill="none" r="12" /></g><g stroke="blue" stroke-width="2" transform="rotate(67.500000,660.478905,187.183217)"><path d="M 660.478905,187.183217 m 21.213203,21.213203 a 26.568542,26.568542 0 0,1 37.573593,0.000000 m 0.000000,-42.426407 a 26.568542,26.568542 0 0,1 -37.573593,0.000000" fill="none" /></g><g stroke="red" stroke-width="2" transform="rotate(90.000000,691.093580,261.093580)"><path d="M 691.093580,261.093580 m 21.213203,-21.213203 a 30.000000,30.000000 0 1,0 0.000000,42.426407 a 26.568542,26.568542 0 0,1 37.573593,0.000000 a 30.000000,30.000000 0 1,0 0.000000,-42.426407 a 26.568542,26.568542 0 0,1 -37.573593,0.000000 Z" fill="none" /><circle cx="691.093579685034" cy="261.09357968503394" fill="none" r="12" /><circle cx="771.093579685034" cy="261.09357968503394" fill="none" r="12" /></g><g stroke="blue" stroke-width="2" transform="rotate(112.500000,691.093580,341.093580)"><path d="M 691.093580,341.093580 m 21.213203,21.213203 a 26.568542,26.568542 0 0,1 37.573593,0.000000 m 0.000000,-42.426407 a 26.568542,26.568542 0 0,1 -37.573593,0.000000" fill="none" /></g><g stroke="red" stroke-width="2" transform="rotate(135.000000,660.478905,415.003942)"><path d="M 660.478905,415.003942 m 21.213203,-21.213203 a 30.000000,30.000000 0 1,0 0.000000,42.426407 a 26.568542,26.568542 0 0,1 37.573593,0.000000 a 30.000000,30.000000 0 1,0 0.000000,-42.426407 a 26.568542,26.568542 0 0,1 -37.573593,0.000000 Z" fill="none" /><circle cx="660.4789050958268" cy="415.0039422859369" fill="none" r="12" /><circle cx="740.4789050958268" cy="415.0039422859369" fill="none" r="12" /></g><g stroke="blue" stroke-width="2" transform="rotate(157.500000,603.910363,471.572485)"><path d="M 603.910363,471.572485 m 21.213203,21.213203 a 26.568542,26.568542 0 0,1 37.573593,0.000000 m 0.000000,-42.426407 a 26.568542,26.568542 0 0,1 -37.573593,0.000000" fill="none" /></g><g stroke="red" stroke-width="2" transform="rotate(180.000000,530.000000,502.187159)"><path d="M 530.000000,502.187159 m 21.213203,-21.213203 a 30.000000,30.000000 0 1,0 0.000000,42.426407 a 26.568542,26.568542 0 0,1 37.573593,0.000000 a 30.000000,30.000000 0 1,0 0.000000,-42.426407 a 26.568542,26.568542 0 0,1 -37.573593,0.000000 Z" fill="none" /><circle cx="530.0" cy="502.1871593700679" fill="none" r="12" /><circle cx="610.0" cy="502.1871593700679" fill="none" r="12" /></g><g stroke="blue" stroke-width="2" transform="rotate(202.500000,450.000000,502.187159)"><path d="M 450.000000,502.187159 m 21.213203,21.213203 a 26.568542,26.568542 0 0,1 37.573593,0.000000 m 0.000000,-42.426407 a 26.568542,26.568542 0 0,1 -37.573593,0.000000" fill="none" /></g><g stroke="red" stroke-width="2" transform="rotate(225.000000,376.089637,471.572485)"><path d="M 376.089637,471.572485 m 21.213203,-21.213203 a 30.000000,30.000000 0 1,0 0.000000,42.426407 a 26.568542,26.568542 0 0,1 37.573593,0.000000 a 30.000000,30.000000 0 1,0 0.000000,-42.426407 a 26.568542,26.568542 0 0,1 -37.573593,0.000000 Z" fill="none" /><circle cx="376.08963739909706" cy="471.5724847808607" fill="none" r="12" /><circle cx="456.08963739909706" cy="471.5724847808607" fill="none" r="12" /></g><g stroke="blue" stroke-width="2" transform="rotate(247.500000,319.521095,415.003942)"><path d="M 319.521095,415.003942 m 21.213203,21.213203 a 26.568542,26.568542 0 0,1 37.573593,0.000000 m 0.000000,-42.426407 a 26.568542,26.568542 0 0,1 -37.573593,0.000000" fill="none" /></g><g stroke="red" stroke-width="2" transform="rotate(270.000000,288.906420,341.093580)"><path d="M 288.906420,341.093580 m 21.213203,-21.213203 a 30.000000,30.000000 0 1,0 0.000000,42.426407 a 26.568542,26.568542 0 0,1 37.573593,0.000000 a 30.000000,30.000000 0 1,0 0.000000,-42.426407 a 26.568542,26.568542 0 0,1 -37.573593,0.000000 Z" fill="none" /><circle cx="288.9064203149661" cy="341.09357968503394" fill="none" r="12" /><circle cx="368.9064203149661" cy="341.09357968503394" fill="none" r="12" /></g><g stroke="blue" stroke-width="2" transform="rotate(292.500000,288.906420,261.093580)"><path d="M 288.906420,261.093580 m 21.213203,21.213203 a 26.568542,26.568542 0 0,1 37.573593,0.000000 m 0.000000,-42.426407 a 26.568542,26.568542 0 0,1 -37.573593,0.000000" fill="none" /></g><g stroke="red" stroke-width="2" transform="rotate(315.000000,319.521095,187.183217)"><path d="M 319.521095,187.183217 m 21.213203,-21.213203 a 30.000000,30.000000 0 1,0 0.000000,42.426407 a 26.568542,26.568542 0 0,1 37.573593,0.000000 a 30.000000,30.000000 0 1,0 0.000000,-42.426407 a 26.568542,26.568542 0 0,1 -37.573593,0.000000 Z" fill="none" /><circle cx="319.5210949041733" cy="187.183217084131" fill="none" r="12" /><circle cx="399.5210949041733" cy="187.183217084131" fill="none" r="12" /></g><g stroke="blue" stroke-width="2" transform="rotate(337.500000,376.089637,130.614675)"><path d="M 376.089637,130.614675 m 21.213203,21.213203 a 26.568542,26.568542 0 0,1 37.573593,0.000000 m 0.000000,-42.426407 a 26.568542,26.568542 0 0,1 -37.573593,0.000000" fill="none" /></g></svg>