<?xml version="1.0" encoding="utf-8" ?>
<svg baseProfile="full" height="900" version="1.1" width="900" xmlns="http://www.w3.org/2000/svg" xmlns:ev="http://www.w3.org/2001/xml-events" xmlns:xlink="http://www.w3.org/1999/xlink"><defs /><g stroke="red" stroke-width="2" transform="rotate(0,450,100)"><path d="M 450,100 m 21,-21 a 30,30 0 1,0 0,42 a 26,26 0 0,1 37,0 a 30,30 0 1,0 0,-42 a 26,26 0 0,1 -37,0 Z" fill="none" /><circle cx="450" cy="100" fill="none" r="12" /><circle cx="530" cy="100" fill="none" r="12" /></g><g stroke="blue" stroke-width="2" transform="rotate(22,530,100)"><path d="M 530,100 m 21,21 a 26,26 0 0,1 37,0 m 0,-42 a 26,26 0 0,1 -37,0" fill="none" /></g><g stroke="red" stroke-width="2" transform="rotate(45,603,130)"><path d="M 603,130 m 21,-21 a 30,30 0 1,0 0,42 a 26,26 0 0,1 37,0 a 30,30 0 1,0 0,-42 a 26,26 0 0,1 -37,0 Z" fill="none" /><circle cx="603.910362600903" cy="130.6146745892072" fill="none" r="12" /><circle cx="683.910362600903" cy="130.6146745892072" fill="none" r="12" /></g><g stroke="blue" stroke-width="2" transform="rotate(67,660,187)"><path d="M 660,187 m 21,21 a 26,26 0 0,1 37,0 m 0,-42 a 26,26 0 0,1 -37,0" fill="none" /></g><g stroke="red" stroke-width="2" transform="rotate(90,691,261)"><path d="M 691,261 m 21,-21 a 30,30 0 1,0 0,42 a 26,26 0 0,1 37,0 a 30,30 0 1,0 0,-42 a 26,26 0 0,1 -37,0 Z" fill="none" /><circle cx="691.093579685034" cy="261.09357968503394" fill="none" r="12" /><circle cx="771.093579685034" cy="261.09357968503394" fill="none" r="12" /></g><g stroke="blue" stroke-width="2" transform="rotate(112,691,341)"><path d="M 691,341 m 21,21 a 26,26 0 0,1 37,0 m 0,-42 a 26,26 0 0,1 -37,0" fill="none" /></g><g stroke="red" stroke-width="2" transform="rotate(135,660,415)"><path d="M 660,415 m 21,-21 a 30,30 0 1,0 0,42 a 26,26 0 0,1 37,0 a 30,30 0 1,0 0,-42 a 26,26 0 0,1 -37,0 Z" fill="none" /><circle cx="660.4789050958268" cy="415.0039422859369" fill="none" r="12" /><circle cx="740.4789050958268" cy="415.0039422859369" fill="none" r="12" /></g><g stroke="blue" stroke-width="2" transform="rotate(157,603,471)"><path d="M 603,471 m 21,21 a 26,26 0 0,1 37,0 m 0,-42 a 26,26 0 0,1 -37,0" fill="none" /></g><g stroke="red" stroke-width="2" transform="rotate(180,530,502)"><path d="M 530,502 m 21,-21 a 30,30 0 1,0 0,42 a 26,26 0 0,1 37,0 a 30,30 0 1,0 0,-42 a 26,26 0 0,1 -37,0 Z" fill="none" /><circle cx="530.0" cy="502.1871593700679" fill="none" r="12" /><circle cx="610.0" cy="502.1871593700679" fill="none" r="12" /></g><g stroke="blue" stroke-width="2" transform="rotate(202,450,502)"><path d="M 450,502 m 21,21 a 26,26 0 0,1 37,0 m 0,-42 a 26,26 0 0,1 -37,0" fill="none" /></g><g stroke="red" stroke-width="2" transform="rotate(225,376,471)"><path d="M 376,471 m 21,-21 a 30,30 0 1,0 0,42 a 26,26 0 0,1 37,0 a 30,30 0 1,0 0,-42 a 26,26 0 0,1 -37,0 Z" fill="none" /><circle cx="376.08963739909706" cy="471.5724847808607" fill="none" r="12" /><circle cx="456.08963739909706" cy="471.5724847808607" fill="none" r="12" /></g><g stroke="blue" stroke-width="2" transform="rotate(247,319,415)"><path d="M 319,415 m 21,21 a 26,26 0 0,1 37,0 m 0,-42 a 26,26 0 0,1 -37,0" fill="none" /></g><g stroke="red" stroke-width="2" transform="rotate(270,288,341)"><path d="M 288,341 m 21,-21 a 30,30 0 1,0 0,42 a 26,26 0 0,1 37,0 a 30,30 0 1,0 0,-42 a 26,26 0 0,1 -37,0 Z" fill="none" /><circle cx="288.9064203149661" cy="341.09357968503394" fill="none" r="12" /><circle cx="368.9064203149661" cy="341.09357968503394" fill="none" r="12" /></g><g stroke="blue" stroke-width="2" transform="rotate(292,288,261)"><path d="M 288,261 m 21,21 a 26,26 0 0,1 37,0 m 0,-42 a 26,26 0 0,1 -37,0" fill="none" /></g><g stroke="red" stroke-width="2" transform="rotate(315,319,187)"><path d="M 319,187 m 21,-21 a 30,30 0 1,0 0,42 a 26,26 0 0,1 37,0 a 30,30 0 1,0 0,-42 a 26,26 0 0,1 -37,0 Z" fill="none" /><circle cx="319.5210949041733" cy="187.183217084131" fill="none" r="12" /><circle cx="399.5210949041733" cy="187.183217084131" fill="none" r="12" /></g><g stroke="blue" stroke-width="2" transform="rotate(337,376,130)"><path d="M 376,130 m 21,21 a 26,26 0 0,1 37,0 m 0,-42 a 26,26 0 0,1 -37,0" fill="none" /></g></svg>