<?xml version="1.0" encoding="utf-8" ?>
<svg baseProfile="full" height="900" version="1.1" width="900" xmlns="http://www.w3.org/2000/svg" xmlns:ev="http://www.w3.org/2001/xml-events" xmlns:xlink="http://www.w3.org/1999/xlink"><defs /><g stroke="red" stroke-width="2"><path d="M 471.213203,203.786797 a 30.000000,30.000000 0 1,0 -0.000000,42.426407 a 26.568542,26.568542 0 0,1 37.573593,0.000000 a 30.000000,30.000000 0 1,0 0.000000,-42.426407 a 26.568542,26.568542 0 0,1 -37.573593,-0.000000 Z" fill="none" /><circle cx="450.0" cy="225.0" fill="none" r="12" /><circle cx="530.0" cy="225.0" fill="none" r="12" /></g><g stroke="blue" stroke-width="2"><path d="M 530.000000,195.000000 m 30.000000,30.000000 a 26.568542,26.568542 0 0,1 26.568542,-26.568542 m -30.000000,-30.000000 a 26.568542,26.568542 0 0,1 -26.568542,26.568542" fill="none" /></g><g stroke="red" stroke-width="2"><path d="M 616.568542,168.431458 a 30.000000,30.000000 0 1,0 -30.000000,30.000000 a 26.568542,26.568542 0 0,1 26.568542,26.568542 a 30.000000,30.000000 0 1,0 30.000000,-30.000000 a 26.568542,26.568542 0 0,1 -26.568542,-26.568542 Z" fill="none" /><circle cx="586.5685424949238" cy="168.4314575050762" fill="none" r="12" /><circle cx="643.1370849898476" cy="225.0" fill="none" r="12" /></g><g stroke="blue" stroke-width="2"><path d="M 664.350288,203.786797 m -0.000000,42.426407 a 26.568542,26.568542 0 0,1 37.573593,0.000000 m 0.000000,-42.426407 a 26.568542,26.568542 0 0,1 -37.573593,-0.000000" fill="none" /></g><g stroke="red" stroke-width="2"><path d="M 744.350288,246.213203 a 30.000000,30.000000 0 1,0 -42.426407,0.000000 a 26.568542,26.568542 0 0,1 0.000000,37.573593 a 30.000000,30.000000 0 1,0 42.426407,-0.000000 a 26.568542,26.568542 0 0,1 -0.000000,-37.573593 Z" fill="none" /><circle cx="723.1370849898476" cy="225.0" fill="none" r="12" /><circle cx="723.1370849898476" cy="305.0" fill="none" r="12" /></g><g stroke="blue" stroke-width="2"><path d="M 753.137085,305.000000 m -30.000000,30.000000 a 26.568542,26.568542 0 0,1 26.568542,26.568542 m 30.000000,-30.000000 a 26.568542,26.568542 0 0,1 -26.568542,-26.568542" fill="none" /></g><g stroke="red" stroke-width="2"><path d="M 779.705627,391.568542 a 30.000000,30.000000 0 1,0 -30.000000,-30.000000 a 26.568542,26.568542 0 0,1 -26.568542,26.568542 a 30.000000,30.000000 0 1,0 30.000000,30.000000 a 26.568542,26.568542 0 0,1 26.568542,-26.568542 Z" fill="none" /><circle cx="779.7056274847714" cy="361.5685424949238" fill="none" r="12" /><circle cx="723.1370849898476" cy="418.1370849898476" fill="none" r="12" /></g><g stroke="blue" stroke-width="2"><path d="M 744.350288,439.350288 m -42.426407,0.000000 a 26.568542,26.568542 0 0,1 0.000000,37.573593 m 42.426407,-0.000000 a 26.568542,26.568542 0 0,1 -0.000000,-37.573593" fill="none" /></g><g stroke="red" stroke-width="2"><path d="M 701.923882,519.350288 a 30.000000,30.000000 0 1,0 -0.000000,-42.426407 a 26.568542,26.568542 0 0,1 -37.573593,0.000000 a 30.000000,30.000000 0 1,0 0.000000,42.426407 a 26.568542,26.568542 0 0,1 37.573593,-0.000000 Z" fill="none" /><circle cx="723.1370849898476" cy="498.1370849898476" fill="none" r="12" /><circle cx="643.1370849898476" cy="498.1370849898476" fill="none" r="12" /></g><g stroke="blue" stroke-width="2"><path d="M 643.137085,528.137085 m -30.000000,-30.000000 a 26.568542,26.568542 0 0,1 -26.568542,26.568542 m 30.000000,30.000000 a 26.568542,26.568542 0 0,1 26.568542,-26.568542" fill="none" /></g><g stroke="red" stroke-width="2"><path d="M 556.568542,554.705627 a 30.000000,30.000000 0 1,0 30.000000,-30.000000 a 26.568542,26.568542 0 0,1 -26.568542,-26.568542 a 30.000000,30.000000 0 1,0 -30.000000,30.000000 a 26.568542,26.568542 0 0,1 26.568542,26.568542 Z" fill="none" /><circle cx="586.5685424949238" cy="554.7056274847714" fill="none" r="12" /><circle cx="530.0" cy="498.1370849898476" fill="none" r="12" /></g><g stroke="blue" stroke-width="2"><path d="M 508.786797,519.350288 m -0.000000,-42.426407 a 26.568542,26.568542 0 0,1 -37.573593,0.000000 m 0.000000,42.426407 a 26.568542,26.568542 0 0,1 37.573593,-0.000000" fill="none" /></g><g stroke="red" stroke-width="2"><path d="M 428.786797,476.923882 a 30.000000,30.000000 0 1,0 42.426407,-0.000000 a 26.568542,26.568542 0 0,1 -0.000000,-37.573593 a 30.000000,30.000000 0 1,0 -42.426407,0.000000 a 26.568542,26.568542 0 0,1 0.000000,37.573593 Z" fill="none" /><circle cx="450.0" cy="498.1370849898476" fill="none" r="12" /><circle cx="450.0" cy="418.1370849898476" fill="none" r="12" /></g><g stroke="blue" stroke-width="2"><path d="M 420.000000,418.137085 m 30.000000,-30.000000 a 26.568542,26.568542 0 0,1 -26.568542,-26.568542 m -30.000000,30.000000 a 26.568542,26.568542 0 0,1 26.568542,26.568542" fill="none" /></g><g stroke="red" stroke-width="2"><path d="M 393.431458,331.568542 a 30.000000,30.000000 0 1,0 30.000000,30.000000 a 26.568542,26.568542 0 0,1 26.568542,-26.568542 a 30.000000,30.000000 0 1,0 -30.000000,-30.000000 a 26.568542,26.568542 0 0,1 -26.568542,26.568542 Z" fill="none" /><circle cx="393.4314575050762" cy="361.5685424949238" fill="none" r="12" /><circle cx="450.0" cy="305.0" fill="none" r="12" /></g><g stroke="blue" stroke-width="2"><path d="M 428.786797,283.786797 m 42.426407,-0.000000 a 26.568542,26.568542 0 0,1 -0.000000,-37.573593 m -42.426407,0.000000 a 26.568542,26.568542 0 0,1 0.000000,37.573593" fill="none" /></g></svg>