<?xml version="1.0" encoding="utf-8" ?>
<svg baseProfile="full" height="900" version="1.1" width="900" xmlns="http://www.w3.org/2000/svg" xmlns:ev="http://www.w3.org/2001/xml-events" xmlns:xlink="http://www.w3.org/1999/xlink"><defs /><g stroke="red" stroke-width="2"><path d="M 246.213203,203.786797 a 30.000000,30.000000 0 1,0 -0.000000,42.426407 a 26.568542,26.568542 0 0,1 37.573593,0.000000 a 30.000000,30.000000 0 1,0 0.000000,-42.426407 a 26.568542,26.568542 0 0,1 -37.573593,-0.000000 Z" fill="none" /><circle cx="225.0" cy="225.0" fill="none" r="12" /><circle cx="305.0" cy="225.0" fill="none" r="12" /></g><g stroke="blue" stroke-width="2"><path d="M 305.000000,195.000000 m 30.000000,30.000000 a 26.568542,26.568542 0 0,1 26.568542,-26.568542 m -30.000000,-30.000000 a 26.568542,26.568542 0 0,1 -26.568542,26.568542" fill="none" /></g><g stroke="red" stroke-width="2"><path d="M 391.568542,168.431458 a 30.000000,30.000000 0 1,0 -30.000000,30.000000 a 26.568542,26.568542 0 0,1 26.568542,26.568542 a 30.000000,30.000000 0 1,0 30.000000,-30.000000 a 26.568542,26.568542 0 0,1 -26.568542,-26.568542 Z" fill="none" /><circle cx="361.5685424949238" cy="168.4314575050762" fill="none" r="12" /><circle cx="418.1370849898476" cy="225.0" fill="none" r="12" /></g><g stroke="blue" stroke-width="2"><path d="M 439.350288,203.786797 m -0.000000,42.426407 a 26.568542,26.568542 0 0,1 37.573593,0.000000 m 0.000000,-42.426407 a 26.568542,26.568542 0 0,1 -37.573593,-0.000000" fill="none" /></g><g stroke="red" stroke-width="2"><path d="M 519.350288,246.213203 a 30.000000,30.000000 0 1,0 -42.426407,0.000000 a 26.568542,26.568542 0 0,1 0.000000,37.573593 a 30.000000,30.000000 0 1,0 42.426407,-0.000000 a 26.568542,26.568542 0 0,1 -0.000000,-37.573593 Z" fill="none" /><circle cx="498.1370849898476" cy="225.0" fill="none" r="12" /><circle cx="498.1370849898476" cy="305.0" fill="none" r="12" /></g><g stroke="blue" stroke-width="2"><path d="M 528.137085,305.000000 m -30.000000,30.000000 a 26.568542,26.568542 0 0,1 26.568542,26.568542 m 30.000000,-30.000000 a 26.568542,26.568542 0 0,1 -26.568542,-26.568542" fill="none" /></g><g stroke="red" stroke-width="2"><path d="M 554.705627,391.568542 a 30.000000,30.000000 0 1,0 -30.000000,-30.000000 a 26.568542,26.568542 0 0,1 -26.568542,26.568542 a 30.000000,30.000000 0 1,0 30.000000,30.000000 a 26.568542,26.568542 0 0,1 26.568542,-26.568542 Z" fill="none" /><circle cx="554.7056274847714" cy="361.5685424949238" fill="none" r="12" /><circle cx="498.1370849898476" cy="418.1370849898476" fill="none" r="12" /></g><g stroke="blue" stroke-width="2"><path d="M 519.350288,439.350288 m -42.426407,0.000000 a 26.568542,26.568542 0 0,1 0.000000,37.573593 m 42.426407,-0.000000 a 26.568542,26.568542 0 0,1 -0.000000,-37.573593" fill="none" /></g><g stroke="red" stroke-width="2"><path d="M 476.923882,519.350288 a 30.000000,30.000000 0 1,0 -0.000000,-42.426407 a 26.568542,26.568542 0 0,1 -37.573593,0.000000 a 30.000000,30.000000 0 1,0 0.000000,42.426407 a 26.568542,26.568542 0 0,1 37.573593,-0.000000 Z" fill="none" /><circle cx="498.1370849898476" cy="498.1370849898476" fill="none" r="12" /><circle cx="418.1370849898476" cy="498.1370849898476" fill="none" r="12" /></g><g stroke="blue" stroke-width="2"><path d="M 418.137085,528.137085 m -30.000000,-30.000000 a 26.568542,26.568542 0 0,1 -26.568542,26.568542 m 30.000000,30.000000 a 26.568542,26.568542 0 0,1 26.568542,-26.568542" fill="none" /></g><g stroke="red" stroke-width="2"><path d="M 331.568542,554.705627 a 30.000000,30.000000 0 1,0 30.000000,-30.000000 a 26.568542,26.568542 0 0,1 -26.568542,-26.568542 a 30.000000,30.000000 0 1,0 -30.000000,30.000000 a 26.568542,26.568542 0 0,1 26.568542,26.568542 Z" fill="none" /><circle cx="361.5685424949238" cy="554.7056274847714" fill="none" r="12" /><circle cx="305.0" cy="498.1370849898476" fill="none" r="12" /></g><g stroke="blue" stroke-width="2"><path d="M 283.786797,519.350288 m -0.000000,-42.426407 a 26.568542,26.568542 0 0,1 -37.573593,0.000000 m 0.000000,42.426407 a 26.568542,26.568542 0 0,1 37.573593,-0.000000" fill="none" /></g><g stroke="red" stroke-width="2"><path d="M 203.786797,476.923882 a 30.000000,30.000000 0 1,0 42.426407,-0.000000 a 26.568542,26.568542 0 0,1 -0.000000,-37.573593 a 30.000000,30.000000 0 1,0 -42.426407,0.000000 a 26.568542,26.568542 0 0,1 0.000000,37.573593 Z" fill="none" /><circle cx="225.0" cy="498.1370849898476" fill="none" r="12" /><circle cx="224.99999999999997" cy="418.1370849898476" fill="none" r="12" /></g><g stroke="blue" stroke-width="2"><path d="M 195.000000,418.137085 m 30.000000,-30.000000 a 26.568542,26.568542 0 0,1 -26.568542,-26.568542 m -30.000000,30.000000 a 26.568542,26.568542 0 0,1 26.568542,26.568542" fill="none" /></g><g stroke="red" stroke-width="2"><path d="M 168.431458,331.568542 a 30.000000,30.000000 0 1,0 30.000000,30.000000 a 26.568542,26.568542 0 0,1 26.568542,-26.568542 a 30.000000,30.000000 0 1,0 -30.000000,-30.000000 a 26.568542,26.568542 0 0,1 -26.568542,26.568542 Z" fill="none" /><circle cx="168.43145750507614" cy="361.5685424949238" fill="none" r="12" /><circle cx="224.99999999999994" cy="305.0" fill="none" r="12" /></g><g stroke="blue" stroke-width="2"><path d="M 203.786797,283.786797 m 42.426407,-0.000000 a 26.568542,26.568542 0 0,1 -0.000000,-37.573593 m -42.426407,0.000000 a 26.568542,26.568542 0 0,1 0.000000,37.573593" fill="none" /></g></svg>