<?xml version="1.0" encoding="utf-8" ?>
<svg baseProfile="full" height="900" version="1.1" width="900" xmlns="http://www.w3.org/2000/svg" xmlns:ev="http://www.w3.org/2001/xml-events" xmlns:xlink="http://www.w3.org/1999/xlink"><defs /><g stroke="red" stroke-width="2"><path d="M 246.213203,203.786797 a 30.000000,30.000000 0 1,0 -0.000000,42.426407 a 26.568542,26.568542 0 0,1 37.573593,0.000000 a 30.000000,30.000000 0 1,0 0.000000,-42.426407 a 26.568542,26.568542 0 0,1 -37.573593,-0.000000 Z" fill="none" /><circle cx="225.0" cy="225.0" fill="none" r="12" /><circle cx="305.0" cy="225.0" fill="none" r="12" /></g><g stroke="blue" stroke-width="2"><path d="M 326.213203,203.786797 m -0.000000,42.426407 a 26.568542,26.568542 0 0,1 37.573593,0.000000 m 0.000000,-42.426407 a 26.568542,26.568542 0 0,1 -37.573593,-0.000000" fill="none" /></g><g stroke="red" stroke-width="2"><path d="M 377.767050,195.884979 a 30.000000,30.000000 0 1,0 36.347971,21.882071 a 26.568542,26.568542 0 0,1 19.379157,-32.190420 a 30.000000,30.000000 0 1,0 -36.347971,-21.882071 a 26.568542,26.568542 0 0,1 -19.379157,32.190420 Z" fill="none" /><circle cx="385.0" cy="225.0" fill="none" r="12" /><circle cx="426.2612278777145" cy="156.4616087581324" fill="none" r="12" /></g><g stroke="blue" stroke-width="2"><path d="M 419.028278,127.346588 m 36.347971,21.882071 a 26.568542,26.568542 0 0,1 19.379157,-32.190420 m -36.347971,-21.882071 a 26.568542,26.568542 0 0,1 -19.379157,32.190420" fill="none" /></g><g stroke="red" stroke-width="2"><path d="M 494.252651,101.542933 a 30.000000,30.000000 0 1,0 -40.349911,13.110481 a 26.568542,26.568542 0 0,1 11.610879,35.734611 a 30.000000,30.000000 0 1,0 40.349911,-13.110481 a 26.568542,26.568542 0 0,1 -11.610879,-35.734611 Z" fill="none" /><circle cx="467.52245575542895" cy="87.92321751626478" fill="none" r="12" /><circle cx="492.24381530542473" cy="164.00773881987706" fill="none" r="12" /></g><g stroke="blue" stroke-width="2"><path d="M 518.974011,177.627454 m -40.349911,13.110481 a 26.568542,26.568542 0 0,1 11.610879,35.734611 m 40.349911,-13.110481 a 26.568542,26.568542 0 0,1 -11.610879,-35.734611" fill="none" /></g><g stroke="red" stroke-width="2"><path d="M 542.420101,224.216280 a 30.000000,30.000000 0 1,0 -9.578945,41.330906 a 26.568542,26.568542 0 0,1 36.603398,8.483287 a 30.000000,30.000000 0 1,0 9.578945,-41.330906 a 26.568542,26.568542 0 0,1 -36.603398,-8.483287 Z" fill="none" /><circle cx="516.9651748554205" cy="240.09226012348932" fill="none" r="12" /><circle cx="594.8994790853765" cy="258.1544921060728" fill="none" r="12" /></g><g stroke="blue" stroke-width="2"><path d="M 620.354405,242.278511 m -9.578945,41.330906 a 26.568542,26.568542 0 0,1 36.603398,8.483287 m 9.578945,-41.330906 a 26.568542,26.568542 0 0,1 -36.603398,-8.483287" fill="none" /></g><g stroke="red" stroke-width="2"><path d="M 668.140749,305.847374 a 30.000000,30.000000 0 1,0 -24.937616,-34.323684 a 26.568542,26.568542 0 0,1 -30.397675,22.085204 a 30.000000,30.000000 0 1,0 24.937616,34.323684 a 26.568542,26.568542 0 0,1 30.397675,-22.085204 Z" fill="none" /><circle cx="672.8337833153325" cy="276.21672408865624" fill="none" r="12" /><circle cx="608.1124237653368" cy="323.2395442720541" fill="none" r="12" /></g><g stroke="blue" stroke-width="2"><path d="M 603.419390,352.870194 m -24.937616,-34.323684 a 26.568542,26.568542 0 0,1 -30.397675,22.085204 m 24.937616,34.323684 a 26.568542,26.568542 0 0,1 30.397675,-22.085204" fill="none" /></g><g stroke="red" stroke-width="2"><path d="M 566.356024,389.565490 a 30.000000,30.000000 0 1,0 -42.268085,3.661834 a 26.568542,26.568542 0 0,1 3.242987,37.433380 a 30.000000,30.000000 0 1,0 42.268085,-3.661834 a 26.568542,26.568542 0 0,1 -3.242987,-37.433380 Z" fill="none" /><circle cx="543.391064215341" cy="370.262364455452" fill="none" r="12" /><circle cx="550.295885241314" cy="449.9638289752416" fill="none" r="12" /></g><g stroke="blue" stroke-width="2"><path d="M 573.260845,469.266954 m -42.268085,3.661834 a 26.568542,26.568542 0 0,1 3.242987,37.433380 m 42.268085,-3.661834 a 26.568542,26.568542 0 0,1 -3.242987,-37.433380" fill="none" /></g><g stroke="red" stroke-width="2"><path d="M 527.570056,534.358327 a 30.000000,30.000000 0 1,0 24.937616,-34.323684 a 26.568542,26.568542 0 0,1 -30.397675,-22.085204 a 30.000000,30.000000 0 1,0 -24.937616,34.323684 a 26.568542,26.568542 0 0,1 30.397675,22.085204 Z" fill="none" /><circle cx="557.2007062672869" cy="529.6652934950312" fill="none" r="12" /><circle cx="492.47934671729115" cy="482.64247331163335" fill="none" r="12" /></g><g stroke="blue" stroke-width="2"><path d="M 462.848696,487.335507 m 24.937616,-34.323684 a 26.568542,26.568542 0 0,1 -30.397675,-22.085204 m -24.937616,34.323684 a 26.568542,26.568542 0 0,1 30.397675,22.085204" fill="none" /></g><g stroke="red" stroke-width="2"><path d="M 416.496187,463.425621 a 30.000000,30.000000 0 1,0 -16.544168,-39.067768 a 26.568542,26.568542 0 0,1 -34.599122,14.651814 a 30.000000,30.000000 0 1,0 16.544168,39.067768 a 26.568542,26.568542 0 0,1 34.599122,-14.651814 Z" fill="none" /><circle cx="427.75798716729537" cy="435.61965312823554" fill="none" r="12" /><circle cx="354.0910970176256" cy="466.81563517202585" fill="none" r="12" /></g><g stroke="blue" stroke-width="2"><path d="M 342.829297,494.621603 m -16.544168,-39.067768 a 26.568542,26.568542 0 0,1 -34.599122,14.651814 m 16.544168,39.067768 a 26.568542,26.568542 0 0,1 34.599122,-14.651814" fill="none" /></g><g stroke="red" stroke-width="2"><path d="M 266.804492,471.281421 a 30.000000,30.000000 0 1,0 40.349911,13.110481 a 26.568542,26.568542 0 0,1 11.610879,-35.734611 a 30.000000,30.000000 0 1,0 -40.349911,-13.110481 a 26.568542,26.568542 0 0,1 -11.610879,35.734611 Z" fill="none" /><circle cx="280.42420686795583" cy="498.01161721581616" fill="none" r="12" /><circle cx="305.1455664179516" cy="421.92709591220387" fill="none" r="12" /></g><g stroke="blue" stroke-width="2"><path d="M 291.525851,395.196900 m 40.349911,13.110481 a 26.568542,26.568542 0 0,1 11.610879,-35.734611 m -40.349911,-13.110481 a 26.568542,26.568542 0 0,1 -11.610879,35.734611" fill="none" /></g><g stroke="red" stroke-width="2"><path d="M 299.941791,343.724483 a 30.000000,30.000000 0 1,0 32.043226,-27.807043 a 26.568542,26.568542 0 0,1 -24.626420,-28.378061 a 30.000000,30.000000 0 1,0 -32.043226,27.807043 a 26.568542,26.568542 0 0,1 24.626420,28.378061 Z" fill="none" /><circle cx="329.8669259679474" cy="345.8425746085916" fill="none" r="12" /><circle cx="277.43346298397364" cy="285.4212873042958" fill="none" r="12" /></g><g stroke="blue" stroke-width="2"><path d="M 247.508328,283.303196 m 32.043226,-27.807043 a 26.568542,26.568542 0 0,1 -24.626420,-28.378061 m -32.043226,27.807043 a 26.568542,26.568542 0 0,1 24.626420,28.378061" fill="none" /></g></svg>