<?xml version="1.0" encoding="utf-8" ?>
<svg baseProfile="full" height="900" version="1.1" width="900" xmlns="http://www.w3.org/2000/svg" xmlns:ev="http://www.w3.org/2001/xml-events" xmlns:xlink="http://www.w3.org/1999/xlink"><defs /><g stroke="red" stroke-width="2"><path d="M 471.213203,203.786797 a 30.000000,30.000000 0 1,0 -0.000000,42.426407 a 26.568542,26.568542 0 0,1 37.573593,0.000000 a 30.000000,30.000000 0 1,0 0.000000,-42.426407 a 26.568542,26.568542 0 0,1 -37.573593,-0.000000 Z" fill="none" /><circle cx="450.0" cy="225.0" fill="none" r="12" /><circle cx="530.0" cy="225.0" fill="none" r="12" /></g><g stroke="blue" stroke-width="2"><path d="M 522.235429,196.022225 m 36.742346,21.213203 a 26.568542,26.568542 0 0,1 18.786797,-32.539686 m -36.742346,-21.213203 a 26.568542,26.568542 0 0,1 -18.786797,32.539686" fill="none" /></g><g stroke="red" stroke-width="2"><path d="M 598.977775,163.482539 a 30.000000,30.000000 0 1,0 -36.742346,21.213203 a 26.568542,26.568542 0 0,1 18.786797,32.539686 a 30.000000,30.000000 0 1,0 36.742346,-21.213203 a 26.568542,26.568542 0 0,1 -18.786797,-32.539686 Z" fill="none" /><circle cx="570.0" cy="155.71796769724492" fill="none" r="12" /><circle cx="610.0" cy="225.0" fill="none" r="12" /></g><g stroke="blue" stroke-width="2"><path d="M 631.213203,203.786797 m -0.000000,42.426407 a 26.568542,26.568542 0 0,1 37.573593,0.000000 m 0.000000,-42.426407 a 26.568542,26.568542 0 0,1 -37.573593,-0.000000" fill="none" /></g><g stroke="red" stroke-width="2"><path d="M 697.764571,253.977775 a 30.000000,30.000000 0 1,0 -36.742346,-21.213203 a 26.568542,26.568542 0 0,1 -18.786797,32.539686 a 30.000000,30.000000 0 1,0 36.742346,21.213203 a 26.568542,26.568542 0 0,1 18.786797,-32.539686 Z" fill="none" /><circle cx="690.0" cy="225.0" fill="none" r="12" /><circle cx="650.0" cy="294.2820323027551" fill="none" r="12" /></g><g stroke="blue" stroke-width="2"><path d="M 678.977775,302.046604 m -36.742346,21.213203 a 26.568542,26.568542 0 0,1 18.786797,32.539686 m 36.742346,-21.213203 a 26.568542,26.568542 0 0,1 -18.786797,-32.539686" fill="none" /></g><g stroke="red" stroke-width="2"><path d="M 668.786797,384.777268 a 30.000000,30.000000 0 1,0 -0.000000,-42.426407 a 26.568542,26.568542 0 0,1 -37.573593,0.000000 a 30.000000,30.000000 0 1,0 0.000000,42.426407 a 26.568542,26.568542 0 0,1 37.573593,-0.000000 Z" fill="none" /><circle cx="690.0" cy="363.5640646055102" fill="none" r="12" /><circle cx="610.0" cy="363.5640646055102" fill="none" r="12" /></g><g stroke="blue" stroke-width="2"><path d="M 617.764571,392.541839 m -36.742346,-21.213203 a 26.568542,26.568542 0 0,1 -18.786797,32.539686 m 36.742346,21.213203 a 26.568542,26.568542 0 0,1 18.786797,-32.539686" fill="none" /></g><g stroke="red" stroke-width="2"><path d="M 541.022225,425.081526 a 30.000000,30.000000 0 1,0 36.742346,-21.213203 a 26.568542,26.568542 0 0,1 -18.786797,-32.539686 a 30.000000,30.000000 0 1,0 -36.742346,21.213203 a 26.568542,26.568542 0 0,1 18.786797,32.539686 Z" fill="none" /><circle cx="570.0" cy="432.84609690826534" fill="none" r="12" /><circle cx="530.0" cy="363.5640646055103" fill="none" r="12" /></g><g stroke="blue" stroke-width="2"><path d="M 508.786797,384.777268 m -0.000000,-42.426407 a 26.568542,26.568542 0 0,1 -37.573593,0.000000 m 0.000000,42.426407 a 26.568542,26.568542 0 0,1 37.573593,-0.000000" fill="none" /></g><g stroke="red" stroke-width="2"><path d="M 442.235429,334.586290 a 30.000000,30.000000 0 1,0 36.742346,21.213203 a 26.568542,26.568542 0 0,1 18.786797,-32.539686 a 30.000000,30.000000 0 1,0 -36.742346,-21.213203 a 26.568542,26.568542 0 0,1 -18.786797,32.539686 Z" fill="none" /><circle cx="450.0" cy="363.5640646055103" fill="none" r="12" /><circle cx="490.0" cy="294.28203230275517" fill="none" r="12" /></g><g stroke="blue" stroke-width="2"><path d="M 461.022225,286.517461 m 36.742346,-21.213203 a 26.568542,26.568542 0 0,1 -18.786797,-32.539686 m -36.742346,21.213203 a 26.568542,26.568542 0 0,1 18.786797,32.539686" fill="none" /></g></svg>