<?xml version="1.0" encoding="utf-8" ?>
<svg baseProfile="full" height="900" version="1.1" width="900" xmlns="http://www.w3.org/2000/svg" xmlns:ev="http://www.w3.org/2001/xml-events" xmlns:xlink="http://www.w3.org/1999/xlink"><defs /><g stroke="red" stroke-width="2" transform="translate(450.000000,225.000000),rotate(0.000000,0,0)"><path d="M 21.213203,-21.213203 a 30.000000,30.000000 0 1,0 0.000000,42.426407 a 26.568542,26.568542 0 0,1 37.573593,0.000000 a 30.000000,30.000000 0 1,0 0.000000,-42.426407 a 26.568542,26.568542 0 0,1 -37.573593,0.000000 Z" fill="none" /><circle cx="0" cy="0" fill="none" r="12" /><circle cx="80" cy="0" fill="none" r="12" /></g><g stroke="blue" stroke-width="2" transform="translate(530.000000,225.000000),rotate(-45.000000,0,0)"><path d="M 21.213203,21.213203 a 26.568542,26.568542 0 0,1 37.573593,0.000000 m 0.000000,-42.426407 a 26.568542,26.568542 0 0,1 -37.573593,0.000000" fill="none" /></g><g stroke="red" stroke-width="2" transform="translate(586.568542,168.431458),rotate(45.000000,0,0)"><path d="M 21.213203,-21.213203 a 30.000000,30.000000 0 1,0 0.000000,42.426407 a 26.568542,26.568542 0 0,1 37.573593,0.000000 a 30.000000,30.000000 0 1,0 0.000000,-42.426407 a 26.568542,26.568542 0 0,1 -37.573593,0.000000 Z" fill="none" /><circle cx="0" cy="0" fill="none" r="12" /><circle cx="80" cy="0" fill="none" r="12" /></g><g stroke="blue" stroke-width="2" transform="translate(643.137085,225.000000),rotate(0.000000,0,0)"><path d="M 21.213203,21.213203 a 26.568542,26.568542 0 0,1 37.573593,0.000000 m 0.000000,-42.426407 a 26.568542,26.568542 0 0,1 -37.573593,0.000000" fill="none" /></g><g stroke="red" stroke-width="2" transform="translate(723.137085,225.000000),rotate(90.000000,0,0)"><path d="M 21.213203,-21.213203 a 30.000000,30.000000 0 1,0 0.000000,42.426407 a 26.568542,26.568542 0 0,1 37.573593,0.000000 a 30.000000,30.000000 0 1,0 0.000000,-42.426407 a 26.568542,26.568542 0 0,1 -37.573593,0.000000 Z" fill="none" /><circle cx="0" cy="0" fill="none" r="12" /><circle cx="80" cy="0" fill="none" r="12" /></g><g stroke="blue" stroke-width="2" transform="translate(723.137085,305.000000),rotate(45.000000,0,0)"><path d="M 21.213203,21.213203 a 26.568542,26.568542 0 0,1 37.573593,0.000000 m 0.000000,-42.426407 a 26.568542,26.568542 0 0,1 -37.573593,0.000000" fill="none" /></g><g stroke="red" stroke-width="2" transform="translate(779.705627,361.568542),rotate(135.000000,0,0)"><path d="M 21.213203,-21.213203 a 30.000000,30.000000 0 1,0 0.000000,42.426407 a 26.568542,26.568542 0 0,1 37.573593,0.000000 a 30.000000,30.000000 0 1,0 0.000000,-42.426407 a 26.568542,26.568542 0 0,1 -37.573593,0.000000 Z" fill="none" /><circle cx="0" cy="0" fill="none" r="12" /><circle cx="80" cy="0" fill="none" r="12" /></g><g stroke="blue" stroke-width="2" transform="translate(723.137085,418.137085),rotate(90.000000,0,0)"><path d="M 21.213203,21.213203 a 26.568542,26.568542 0 0,1 37.573593,0.000000 m 0.000000,-42.426407 a 26.568542,26.568542 0 0,1 -37.573593,0.000000" fill="none" /></g><g stroke="red" stroke-width="2" transform="translate(723.137085,498.137085),rotate(180.000000,0,0)"><path d="M 21.213203,-21.213203 a 30.000000,30.000000 0 1,0 0.000000,42.426407 a 26.568542,26.568542 0 0,1 37.573593,0.000000 a 30.000000,30.000000 0 1,0 0.000000,-42.426407 a 26.568542,26.568542 0 0,1 -37.573593,0.000000 Z" fill="none" /><circle cx="0" cy="0" fill="none" r="12" /><circle cx="80" cy="0" fill="none" r="12" /></g><g stroke="blue" stroke-width="2" transform="translate(643.137085,498.137085),rotate(135.000000,0,0)"><path d="M 21.213203,21.213203 a 26.568542,26.568542 0 0,1 37.573593,0.000000 m 0.000000,-42.426407 a 26.568542,26.568542 0 0,1 -37.573593,0.000000" fill="none" /></g><g stroke="red" stroke-width="2" transform="translate(586.568542,554.705627),rotate(225.000000,0,0)"><path d="M 21.213203,-21.213203 a 30.000000,30.000000 0 1,0 0.000000,42.426407 a 26.568542,26.568542 0 0,1 37.573593,0.000000 a 30.000000,30.000000 0 1,0 0.000000,-42.426407 a 26.568542,26.568542 0 0,1 -37.573593,0.000000 Z" fill="none" /><circle cx="0" cy="0" fill="none" r="12" /><circle cx="80" cy="0" fill="none" r="12" /></g><g stroke="blue" stroke-width="2" transform="translate(530.000000,498.137085),rotate(180.000000,0,0)"><path d="M 21.213203,21.213203 a 26.568542,26.568542 0 0,1 37.573593,0.000000 m 0.000000,-42.426407 a 26.568542,26.568542 0 0,1 -37.573593,0.000000" fill="none" /></g><g stroke="red" stroke-width="2" transform="translate(450.000000,498.137085),rotate(270.000000,0,0)"><path d="M 21.213203,-21.213203 a 30.000000,30.000000 0 1,0 0.000000,42.426407 a 26.568542,26.568542 0 0,1 37.573593,0.000000 a 30.000000,30.000000 0 1,0 0.000000,-42.426407 a 26.568542,26.568542 0 0,1 -37.573593,0.000000 Z" fill="none" /><circle cx="0" cy="0" fill="none" r="12" /><circle cx="80" cy="0" fill="none" r="12" /></g><g stroke="blue" stroke-width="2" transform="translate(450.000000,418.137085),rotate(225.000000,0,0)"><path d="M 21.213203,21.213203 a 26.568542,26.568542 0 0,1 37.573593,0.000000 m 0.000000,-42.426407 a 26.568542,26.568542 0 0,1 -37.573593,0.000000" fill="none" /></g><g stroke="red" stroke-width="2" transform="translate(393.431458,361.568542),rotate(315.000000,0,0)"><path d="M 21.213203,-21.213203 a 30.000000,30.000000 0 1,0 0.000000,42.426407 a 26.568542,26.568542 0 0,1 37.573593,0.000000 a 30.000000,30.000000 0 1,0 0.000000,-42.426407 a 26.568542,26.568542 0 0,1 -37.573593,0.000000 Z" fill="none" /><circle cx="0" cy="0" fill="none" r="12" /><circle cx="80" cy="0" fill="none" r="12" /></g><g stroke="blue" stroke-width="2" transform="translate(450.000000,305.000000),rotate(270.000000,0,0)"><path d="M 21.213203,21.213203 a 26.568542,26.568542 0 0,1 37.573593,0.000000 m 0.000000,-42.426407 a 26.568542,26.568542 0 0,1 -37.573593,0.000000" fill="none" /></g></svg>