<?xml version="1.0" encoding="utf-8" ?>
<svg baseProfile="full" height="900" version="1.1" width="900" xmlns="http://www.w3.org/2000/svg" xmlns:ev="http://www.w3.org/2001/xml-events" xmlns:xlink="http://www.w3.org/1999/xlink"><defs /><g stroke="red" stroke-width="2"><path d="M 471.213203,203.786797 a 30.000000,30.000000 0 1,0 -0.000000,42.426407 a 26.568542,26.568542 0 0,1 37.573593,0.000000 a 30.000000,30.000000 0 1,0 0.000000,-42.426407 a 26.568542,26.568542 0 0,1 -37.573593,-0.000000 Z" fill="none" /><circle cx="450.0" cy="225.0" fill="none" r="12" /><circle cx="530.0" cy="225.0" fill="none" r="12" /></g><g stroke="blue" stroke-width="2"><path d="M 546.796889,200.143119 m 8.059992,41.653770 a 26.568542,26.568542 0 0,1 36.889332,-7.138075 m -8.059992,-41.653770 a 26.568542,26.568542 0 0,1 -36.889332,7.138075" fill="none" /></g><g stroke="red" stroke-width="2"><path d="M 616.307673,238.779707 a 30.000000,30.000000 0 1,0 -36.742346,-21.213203 a 26.568542,26.568542 0 0,1 -18.786797,32.539686 a 30.000000,30.000000 0 1,0 36.742346,21.213203 a 26.568542,26.568542 0 0,1 18.786797,-32.539686 Z" fill="none" /><circle cx="608.5431012268652" cy="209.80193269963564" fill="none" r="12" /><circle cx="568.5431012268652" cy="279.08396500239076" fill="none" r="12" /></g><g stroke="blue" stroke-width="2"><path d="M 581.671347,306.058938 m -40.103219,-13.846727 a 26.568542,26.568542 0 0,1 -12.262912,35.516136 m 40.103219,13.846727 a 26.568542,26.568542 0 0,1 12.262912,-35.516136" fill="none" /></g><g stroke="red" stroke-width="2"><path d="M 513.455688,346.938748 a 30.000000,30.000000 0 1,0 36.742346,-21.213203 a 26.568542,26.568542 0 0,1 -18.786797,-32.539686 a 30.000000,30.000000 0 1,0 -36.742346,21.213203 a 26.568542,26.568542 0 0,1 18.786797,32.539686 Z" fill="none" /><circle cx="542.4334629839738" cy="354.7033196070509" fill="none" r="12" /><circle cx="502.4334629839737" cy="285.42128730429584" fill="none" r="12" /></g><g stroke="blue" stroke-width="2"><path d="M 472.508328,283.303196 m 32.043226,-27.807043 a 26.568542,26.568542 0 0,1 -24.626420,-28.378061 m -32.043226,27.807043 a 26.568542,26.568542 0 0,1 24.626420,28.378061" fill="none" /></g></svg>