<?xml version="1.0" encoding="utf-8" ?>
<svg baseProfile="full" height="900" version="1.1" width="900" xmlns="http://www.w3.org/2000/svg" xmlns:ev="http://www.w3.org/2001/xml-events" xmlns:xlink="http://www.w3.org/1999/xlink"><defs /><g stroke="red" stroke-width="2" transform="translate(450.000000,225.000000),rotate(0.000000,0,0)"><path d="M 21.213203,-21.213203 a 30.000000,30.000000 0 1,0 0.000000,42.426407 a 26.568542,26.568542 0 0,1 37.573593,0.000000 a 30.000000,30.000000 0 1,0 0.000000,-42.426407 a 26.568542,26.568542 0 0,1 -37.573593,0.000000 Z" fill="none" /><circle cx="0" cy="0" fill="none" r="12" /><circle cx="80" cy="0" fill="none" r="12" /></g><g stroke="blue" stroke-width="2" transform="translate(530.000000,225.000000),rotate(-58.951374,0,0)"><path d="M 21.213203,21.213203 a 26.568542,26.568542 0 0,1 37.573593,0.000000 m 0.000000,-42.426407 a 26.568542,26.568542 0 0,1 -37.573593,0.000000" fill="none" /></g><g stroke="red" stroke-width="2" transform="translate(571.261228,156.461609),rotate(72.000000,0,0)"><path d="M 21.213203,-21.213203 a 30.000000,30.000000 0 1,0 0.000000,42.426407 a 26.568542,26.568542 0 0,1 37.573593,0.000000 a 30.000000,30.000000 0 1,0 0.000000,-42.426407 a 26.568542,26.568542 0 0,1 -37.573593,0.000000 Z" fill="none" /><circle cx="0" cy="0" fill="none" r="12" /><circle cx="80" cy="0" fill="none" r="12" /></g><g stroke="blue" stroke-width="2" transform="translate(595.982587,232.546130),rotate(13.048626,0,0)"><path d="M 21.213203,21.213203 a 26.568542,26.568542 0 0,1 37.573593,0.000000 m 0.000000,-42.426407 a 26.568542,26.568542 0 0,1 -37.573593,0.000000" fill="none" /></g><g stroke="red" stroke-width="2" transform="translate(673.916892,250.608362),rotate(144.000000,0,0)"><path d="M 21.213203,-21.213203 a 30.000000,30.000000 0 1,0 0.000000,42.426407 a 26.568542,26.568542 0 0,1 37.573593,0.000000 a 30.000000,30.000000 0 1,0 0.000000,-42.426407 a 26.568542,26.568542 0 0,1 -37.573593,0.000000 Z" fill="none" /><circle cx="0" cy="0" fill="none" r="12" /><circle cx="80" cy="0" fill="none" r="12" /></g><g stroke="blue" stroke-width="2" transform="translate(609.195532,297.631182),rotate(85.048626,0,0)"><path d="M 21.213203,21.213203 a 26.568542,26.568542 0 0,1 37.573593,0.000000 m 0.000000,-42.426407 a 26.568542,26.568542 0 0,1 -37.573593,0.000000" fill="none" /></g><g stroke="red" stroke-width="2" transform="translate(616.100353,377.332647),rotate(216.000000,0,0)"><path d="M 21.213203,-21.213203 a 30.000000,30.000000 0 1,0 0.000000,42.426407 a 26.568542,26.568542 0 0,1 37.573593,0.000000 a 30.000000,30.000000 0 1,0 0.000000,-42.426407 a 26.568542,26.568542 0 0,1 -37.573593,0.000000 Z" fill="none" /><circle cx="0" cy="0" fill="none" r="12" /><circle cx="80" cy="0" fill="none" r="12" /></g><g stroke="blue" stroke-width="2" transform="translate(551.378994,330.309827),rotate(157.048626,0,0)"><path d="M 21.213203,21.213203 a 26.568542,26.568542 0 0,1 37.573593,0.000000 m 0.000000,-42.426407 a 26.568542,26.568542 0 0,1 -37.573593,0.000000" fill="none" /></g><g stroke="red" stroke-width="2" transform="translate(477.712103,361.505809),rotate(288.000000,0,0)"><path d="M 21.213203,-21.213203 a 30.000000,30.000000 0 1,0 0.000000,42.426407 a 26.568542,26.568542 0 0,1 37.573593,0.000000 a 30.000000,30.000000 0 1,0 0.000000,-42.426407 a 26.568542,26.568542 0 0,1 -37.573593,0.000000 Z" fill="none" /><circle cx="0" cy="0" fill="none" r="12" /><circle cx="80" cy="0" fill="none" r="12" /></g><g stroke="blue" stroke-width="2" transform="translate(502.433463,285.421287),rotate(229.048626,0,0)"><path d="M 21.213203,21.213203 a 26.568542,26.568542 0 0,1 37.573593,0.000000 m 0.000000,-42.426407 a 26.568542,26.568542 0 0,1 -37.573593,0.000000" fill="none" /></g></svg>