<?xml version="1.0" encoding="utf-8" ?>
<svg baseProfile="full" height="900" version="1.1" width="900" xmlns="http://www.w3.org/2000/svg" xmlns:ev="http://www.w3.org/2001/xml-events" xmlns:xlink="http://www.w3.org/1999/xlink"><defs /><g stroke="red" stroke-width="2"><path d="M 471.213203,203.786797 a 30.000000,30.000000 0 1,0 -0.000000,42.426407 a 26.568542,26.568542 0 0,1 37.573593,0.000000 a 30.000000,30.000000 0 1,0 0.000000,-42.426407 a 26.568542,26.568542 0 0,1 -37.573593,-0.000000 Z" fill="none" /><circle cx="450.0" cy="225.0" fill="none" r="12" /><circle cx="530.0" cy="225.0" fill="none" r="12" /></g><g stroke="blue" stroke-width="2"><path d="M 522.767050,195.884979 m 36.347971,21.882071 a 26.568542,26.568542 0 0,1 19.379157,-32.190420 m -36.347971,-21.882071 a 26.568542,26.568542 0 0,1 -19.379157,32.190420" fill="none" /></g><g stroke="red" stroke-width="2"><path d="M 597.991424,170.081324 a 30.000000,30.000000 0 1,0 -40.349911,13.110481 a 26.568542,26.568542 0 0,1 11.610879,35.734611 a 30.000000,30.000000 0 1,0 40.349911,-13.110481 a 26.568542,26.568542 0 0,1 -11.610879,-35.734611 Z" fill="none" /><circle cx="571.2612278777145" cy="156.4616087581324" fill="none" r="12" /><circle cx="595.9825874277103" cy="232.5461300617447" fill="none" r="12" /></g><g stroke="blue" stroke-width="2"><path d="M 621.437513,216.670149 m -9.578945,41.330906 a 26.568542,26.568542 0 0,1 36.603398,8.483287 m 9.578945,-41.330906 a 26.568542,26.568542 0 0,1 -36.603398,-8.483287" fill="none" /></g><g stroke="red" stroke-width="2"><path d="M 669.223858,280.239012 a 30.000000,30.000000 0 1,0 -24.937616,-34.323684 a 26.568542,26.568542 0 0,1 -30.397675,22.085204 a 30.000000,30.000000 0 1,0 24.937616,34.323684 a 26.568542,26.568542 0 0,1 30.397675,-22.085204 Z" fill="none" /><circle cx="673.9168916576664" cy="250.60836204432815" fill="none" r="12" /><circle cx="609.1955321076706" cy="297.631182227726" fill="none" r="12" /></g><g stroke="blue" stroke-width="2"><path d="M 632.160492,316.934307 m -42.268085,3.661834 a 26.568542,26.568542 0 0,1 3.242987,37.433380 m 42.268085,-3.661834 a 26.568542,26.568542 0 0,1 -3.242987,-37.433380" fill="none" /></g><g stroke="red" stroke-width="2"><path d="M 586.469703,382.025681 a 30.000000,30.000000 0 1,0 24.937616,-34.323684 a 26.568542,26.568542 0 0,1 -30.397675,-22.085204 a 30.000000,30.000000 0 1,0 -24.937616,34.323684 a 26.568542,26.568542 0 0,1 30.397675,22.085204 Z" fill="none" /><circle cx="616.1003531336436" cy="377.33264674751564" fill="none" r="12" /><circle cx="551.3789935836478" cy="330.30982656411777" fill="none" r="12" /></g><g stroke="blue" stroke-width="2"><path d="M 540.117193,358.115795 m -16.544168,-39.067768 a 26.568542,26.568542 0 0,1 -34.599122,14.651814 m 16.544168,39.067768 a 26.568542,26.568542 0 0,1 34.599122,-14.651814" fill="none" /></g><g stroke="red" stroke-width="2"><path d="M 464.092388,334.775613 a 30.000000,30.000000 0 1,0 40.349911,13.110481 a 26.568542,26.568542 0 0,1 11.610879,-35.734611 a 30.000000,30.000000 0 1,0 -40.349911,-13.110481 a 26.568542,26.568542 0 0,1 -11.610879,35.734611 Z" fill="none" /><circle cx="477.71210343397803" cy="361.5058086079081" fill="none" r="12" /><circle cx="502.4334629839738" cy="285.4212873042958" fill="none" r="12" /></g><g stroke="blue" stroke-width="2"><path d="M 472.508328,283.303196 m 32.043226,-27.807043 a 26.568542,26.568542 0 0,1 -24.626420,-28.378061 m -32.043226,27.807043 a 26.568542,26.568542 0 0,1 24.626420,28.378061" fill="none" /></g></svg>