<?xml version="1.0" encoding="utf-8" ?>
<svg baseProfile="full" height="900" version="1.1" width="900" xmlns="http://www.w3.org/2000/svg" xmlns:ev="http://www.w3.org/2001/xml-events" xmlns:xlink="http://www.w3.org/1999/xlink"><defs /><g stroke="red" stroke-width="2" transform="rotate(0.000000,450.000000,200.000000)"><path d="M 450.000000,200.000000 m 21.213203,-21.213203 a 30.000000,30.000000 0 1,0 0.000000,42.426407 a 26.568542,26.568542 0 0,1 37.573593,0.000000 a 30.000000,30.000000 0 1,0 0.000000,-42.426407 a 26.568542,26.568542 0 0,1 -37.573593,0.000000 Z" fill="none" /><circle cx="450" cy="200" fill="none" r="12" /><circle cx="530" cy="200" fill="none" r="12" /></g><g stroke="blue" stroke-width="2" transform="rotate(130.951374,530.000000,200.000000)"><path d="M 530.000000,200.000000 m 21.213203,21.213203 a 26.568542,26.568542 0 0,1 37.573593,0.000000 m 0.000000,-42.426407 a 26.568542,26.568542 0 0,1 -37.573593,0.000000" fill="none" /></g><g stroke="red" stroke-width="2" transform="rotate(120.000000,477.566537,260.421287)"><path d="M 477.566537,260.421287 m 21.213203,-21.213203 a 30.000000,30.000000 0 1,0 0.000000,42.426407 a 26.568542,26.568542 0 0,1 37.573593,0.000000 a 30.000000,30.000000 0 1,0 0.000000,-42.426407 a 26.568542,26.568542 0 0,1 -37.573593,0.000000 Z" fill="none" /><circle cx="477.56653701602625" cy="260.4212873042958" fill="none" r="12" /><circle cx="557.5665370160262" cy="260.4212873042958" fill="none" r="12" /></g><g stroke="blue" stroke-width="2" transform="rotate(250.951374,437.566537,329.703320)"><path d="M 437.566537,329.703320 m 21.213203,21.213203 a 26.568542,26.568542 0 0,1 37.573593,0.000000 m 0.000000,-42.426407 a 26.568542,26.568542 0 0,1 -37.573593,0.000000" fill="none" /></g><g stroke="red" stroke-width="2" transform="rotate(240.000000,411.456899,254.083965)"><path d="M 411.456899,254.083965 m 21.213203,-21.213203 a 30.000000,30.000000 0 1,0 0.000000,42.426407 a 26.568542,26.568542 0 0,1 37.573593,0.000000 a 30.000000,30.000000 0 1,0 0.000000,-42.426407 a 26.568542,26.568542 0 0,1 -37.573593,0.000000 Z" fill="none" /><circle cx="411.45689877313475" cy="254.08396500239076" fill="none" r="12" /><circle cx="491.45689877313475" cy="254.08396500239076" fill="none" r="12" /></g><g stroke="blue" stroke-width="2" transform="rotate(370.951374,371.456899,184.801933)"><path d="M 371.456899,184.801933 m 21.213203,21.213203 a 26.568542,26.568542 0 0,1 37.573593,0.000000 m 0.000000,-42.426407 a 26.568542,26.568542 0 0,1 -37.573593,0.000000" fill="none" /></g></svg>